<svg width="36" height="54" viewBox="0 0 36 54" fill="none" xmlns="http://www.w3.org/2000/svg">
<path d="M21.0308 39.5515C21.0308 39.5515 10.3452 40.0515 6.96832 47.3405" stroke="#FF9505" stroke-width="3" stroke-miterlimit="10" stroke-linecap="round" stroke-linejoin="round"/>
<path d="M12.5246 26.5315C12.5246 26.5315 11.7045 38.1406 17.7908 39.9831" stroke="#FF9505" stroke-width="3" stroke-miterlimit="10" stroke-linecap="round" stroke-linejoin="round"/>
<path d="M8.60015 44.85L7.26532 41.5305" stroke="#FF9505" stroke-width="3" stroke-miterlimit="10" stroke-linecap="round" stroke-linejoin="round"/>
<path d="M26.9008 33.1644L26.6038 31.0098" stroke="#FF9505" stroke-width="3" stroke-miterlimit="10" stroke-linecap="round" stroke-linejoin="round"/>
<path d="M26.5806 12.9746C20.3328 12.7215 14.9437 6.1261 14.9437 6.1261L14.9428 6.125C12.9256 7.72366 11.5965 10.4528 11.5965 13.551C11.5965 18.4767 14.9561 22.4698 19.1001 22.4698C23.2444 22.4698 26.6038 18.4767 26.6038 13.551C26.6038 13.3572 26.5986 13.1648 26.5884 12.9742" stroke="#FF9505" stroke-width="3" stroke-miterlimit="10" stroke-linecap="round" stroke-linejoin="round"/>
<path d="M27.5745 21.9492C28.501 21.0174 29.464 19.2779 29.7026 16.0357C30.1934 9.36653 27.666 2.05776 19.1147 2H18.6269C10.0757 2.05776 7.54819 9.36653 8.03906 16.0357C8.52993 22.7049 12.0855 23.0161 12.0855 23.0161" stroke="#FF9505" stroke-width="3" stroke-miterlimit="10" stroke-linecap="round" stroke-linejoin="round"/>
<path d="M13.1189 50.9273C-1.03482 53.2378 2.35574 45.163 2.35574 45.163C2.35574 45.163 7.41775 31.444 8.52512 28.1656C9.09388 26.4815 12.5246 26.4652 12.5246 26.4652C12.5246 26.4652 17.7987 30.5558 23.1895 26.7301C23.1895 26.7301 26.9008 23.2522 29.3275 26.4652C29.9151 27.2433 30.8727 29.4746 31.7708 31.7579" stroke="#FF9505" stroke-width="3" stroke-miterlimit="10" stroke-linecap="round" stroke-linejoin="round"/>
<path d="M28.3102 46.3085C31.7146 46.3085 34.4743 43.5487 34.4743 40.1443C34.4743 36.74 31.7146 33.9802 28.3102 33.9802C24.9059 33.9802 22.1461 36.74 22.1461 40.1443C22.1461 43.5487 24.9059 46.3085 28.3102 46.3085Z" stroke="#FF9505" stroke-width="3" stroke-miterlimit="10" stroke-linecap="round" stroke-linejoin="round"/>
<path d="M22.0632 52C29.6306 50.274 33.9435 47.3066 33.9435 47.3066" stroke="#FF9505" stroke-width="3" stroke-miterlimit="10" stroke-linecap="round" stroke-linejoin="round"/>
<path d="M6.33351 47.2571C6.33351 46.8978 6.62479 46.6065 6.98411 46.6065C7.34342 46.6065 7.6347 46.8978 7.6347 47.2571C7.6347 47.6164 7.34342 47.9077 6.98411 47.9077C6.62479 47.9077 6.33351 47.6164 6.33351 47.2571Z" fill="black" stroke="#FF9505" stroke-width="3"/>
</svg>
