<svg width="30" height="54" viewBox="0 0 30 54" fill="none" xmlns="http://www.w3.org/2000/svg">
<path d="M13.0532 21.5563C12.2031 21.4969 10.8216 21.4044 9.48971 21.3118C9.48971 26.4394 9.48971 31.6066 9.48971 37.276C12.2739 37.276 14.6968 37.3222 17.1197 37.2628C20.1518 37.1901 22.2417 38.2341 22.4897 41.2076C22.7022 43.7779 20.584 45.2911 16.9497 45.3175C13.0745 45.3505 9.19925 45.3241 4.33222 45.3241C4.60852 47.8681 4.92022 50.7028 5.27445 54C4.51641 53.6498 3.53167 53.4978 3.1987 52.989C2.54693 51.9979 1.7889 50.7622 1.90225 49.705C2.78073 41.4124 0.301155 33.2123 1.27173 24.9395C1.38508 23.9946 1.74639 23.0695 1.14421 22.2898C0.733313 20.4661 -0.0601368 18.6291 0.00362341 16.8186C0.102806 13.898 0.66248 10.9708 1.22215 8.0833C2.18564 3.14076 6.20961 0.0880056 11.6434 0.00210587C17.2968 -0.0904015 21.505 2.86984 22.5818 7.89828C23.1769 10.6669 23.2973 13.528 23.9208 16.2966C24.7001 19.7524 23.3398 21.7083 19.6559 22.4418C18.9758 22.5739 18.3382 22.8713 17.2755 23.2347C21.3066 25.435 23.0848 28.2367 20.8461 32.3004C27.8102 34.8708 30.2189 39.7208 29.7159 46.1567C29.5529 48.2183 29.7513 50.2997 29.6379 52.3679C29.6096 52.8833 29.0216 53.3723 28.6886 53.8678C28.2281 53.3723 27.3851 52.8965 27.3638 52.3811C27.2221 49.7711 27.3142 47.1544 27.2859 44.5378C27.2221 38.7032 24.2679 35.3994 18.1824 34.2364C17.4597 34.0977 16.8009 33.655 16.1137 33.3576C16.5246 32.7828 16.815 32.0823 17.3605 31.6528C19.9393 29.6309 19.8897 28.1442 17.4456 26.1817C15.9436 24.9725 14.7818 23.3999 13.0532 21.5563ZM3.63087 31.7255C3.63795 31.7255 3.63794 31.7255 3.64503 31.7255C3.64503 33.9061 3.49625 36.0932 3.68044 38.2605C3.88589 40.712 4.94858 42.8463 8.01615 43.0247C11.1971 43.2163 14.4063 43.2031 17.5802 42.9982C18.4161 42.9454 19.1742 41.8419 19.9676 41.2208C19.1246 40.6393 18.3382 39.6746 17.4243 39.5556C15.4548 39.2979 13.4145 39.3904 11.4096 39.4896C8.38453 39.6415 7.05974 38.3795 7.11641 35.6241C7.18017 32.2475 7.22977 28.8644 7.03849 25.4945C6.9889 24.6619 5.9829 23.869 5.41614 23.0629C4.82105 23.8822 3.82923 24.6553 3.72297 25.5209C3.46084 27.5627 3.63087 29.6507 3.63087 31.7255ZM5.84831 11.1492C6.34422 15.8936 8.59707 19.1445 11.7001 19.1908C15.2281 19.237 16.39 16.7459 17.3464 14.2416C18.5366 11.1426 18.239 8.60529 14.8243 7.96434C11.523 9.14051 8.85212 10.0854 5.84831 11.1492ZM3.45375 8.30134C5.8979 8.00399 8.30661 8.28152 9.95729 7.37627C12.5856 5.9358 14.7251 3.9601 17.6864 6.68907C17.9273 6.90712 18.7137 6.623 19.4292 6.55031C17.8919 3.40506 15.221 2.24872 11.9693 2.22229C7.86029 2.18926 5.1682 4.18476 3.45375 8.30134ZM3.1066 13.6866C1.88099 19.8119 2.03686 20.0762 6.90389 20.1423C5.64994 18.008 4.48807 16.0323 3.1066 13.6866ZM16.7726 20.3141C22.0009 20.1753 22.8581 18.6225 20.3502 13.9575C19.16 16.072 17.9698 18.1798 16.7726 20.3141Z" fill="#EC4E20"/>
</svg>
