<svg width="47" height="52" viewBox="0 0 47 52" fill="none" xmlns="http://www.w3.org/2000/svg">
<path d="M4.38815 30.8859C4.55128 30.6763 4.70242 30.4549 4.88201 30.2632C4.96207 30.178 5.10724 30.1631 5.21274 30.0982C5.59436 29.8635 5.94979 29.5615 6.35684 29.3957C6.85669 29.1923 7.12457 28.9295 7.13804 28.324C7.15974 27.347 8.49614 26.4278 9.58262 27.0278C9.91934 27.214 9.92608 27.2046 10.1423 26.8839C10.5232 26.3175 10.9722 25.8208 11.5042 25.4086C11.6793 25.2724 11.7294 25.1676 11.5543 24.9658C11.2034 24.559 11.044 24.0467 11.0073 23.5124C10.9632 22.8709 10.946 22.2224 11.1892 21.6068C11.2079 21.5599 11.2161 21.502 11.2475 21.4683C11.4997 21.1985 11.4271 20.9591 11.2595 20.6564C10.6025 19.4697 10.1955 18.1813 9.97771 16.8327C9.70758 15.1563 9.80187 13.4964 10.3189 11.8795C10.9258 9.98173 11.8835 8.29519 13.1788 6.81829C14.2286 5.62066 15.4453 4.66083 16.8461 3.95524C17.6534 3.54847 18.5102 3.34587 19.3954 3.24887C19.4934 3.23791 19.6139 3.20584 19.679 3.13779C20.3734 2.40794 21.2593 2.06297 22.1685 1.7618C23.2018 1.41996 24.2651 1.23378 25.3389 1.11488C26.5211 0.984241 27.7064 0.94591 28.8894 1.10158C30.921 1.36833 32.8275 2.04889 34.6473 3.01575C34.8733 3.13544 35.121 3.21366 35.3402 3.34352C35.638 3.52031 35.9186 3.72839 36.206 3.92317C36.2539 3.95681 36.3017 3.99044 36.3496 4.0233C36.5419 4.16019 36.7335 4.29709 36.9258 4.4332C37.6494 5.06213 38.3722 5.69028 39.0958 6.31921C39.1115 6.33564 39.1272 6.35207 39.1429 6.3685C39.7602 7.12024 40.3776 7.87121 40.9949 8.62295C41.1281 8.8193 41.2613 9.01486 41.3952 9.21121C41.4304 9.26988 41.4655 9.32854 41.5007 9.38721C41.7978 9.91523 42.0948 10.4425 42.3919 10.9705C42.5109 11.213 42.6298 11.4555 42.7488 11.698C42.7496 11.716 42.757 11.7301 42.7698 11.741C42.7735 11.7574 42.7765 11.7739 42.7802 11.7903C42.873 11.9984 42.9658 12.2057 43.0593 12.4138C43.203 12.8573 43.3459 13.3 43.4896 13.7436C43.5091 13.8273 43.5278 13.911 43.5472 13.9947C43.5525 14.0283 43.5569 14.0627 43.5622 14.0964C43.5786 14.1629 43.5944 14.2301 43.6108 14.2966C43.6333 14.4281 43.6557 14.5603 43.6782 14.6917C43.7208 15.1063 43.7642 15.5201 43.8069 15.9347C43.8069 16.0551 43.8069 16.1764 43.8069 16.2969C43.7956 16.5918 43.7837 16.8867 43.7724 17.1816C43.7507 17.3646 43.7283 17.5477 43.7066 17.7307C43.652 18.0163 43.5974 18.3026 43.542 18.5881C43.4522 18.8799 43.3631 19.1724 43.2734 19.4642C43.1985 19.6574 43.1237 19.8506 43.0481 20.0439C42.8266 20.4631 42.6037 20.8817 42.3859 21.3033C42.3253 21.4198 42.2797 21.5458 42.2273 21.667C42.1921 21.9056 42.1322 22.1434 42.1263 22.3828C42.1165 22.7465 42.1435 23.1119 42.1554 23.4764C42.1337 23.6258 42.112 23.7752 42.0903 23.9238C41.922 24.2766 41.7506 24.6279 41.5898 24.9846C41.5696 25.0299 41.5815 25.1316 41.6137 25.1559C43.3931 26.4889 44.3703 28.3467 44.8103 30.5409C45.0071 31.5219 45.0565 32.5239 45.0213 33.5268C45.0123 33.7881 44.8649 33.9484 44.6337 33.968C44.389 33.9883 44.1975 33.8553 44.1803 33.5917C44.1503 33.1145 44.172 32.6335 44.1428 32.1555C44.0336 30.3696 43.5727 28.705 42.5094 27.2695C42.0604 26.6633 41.5187 26.1501 40.9028 25.7277C40.8894 25.7183 40.8729 25.7042 40.8594 25.7066C40.4703 25.7606 40.0805 25.8153 39.6921 25.8771C39.6675 25.881 39.645 25.9421 39.633 25.9804C39.4557 26.546 39.2806 27.1131 39.1033 27.6841C39.2222 27.7084 39.3479 27.7264 39.4692 27.7608C39.8411 27.8664 40.0206 28.0862 40.0214 28.4844C40.0221 28.931 39.9944 29.3777 39.9795 29.8244C39.978 29.8807 39.9795 29.937 39.9795 30.0176C40.3596 29.5928 40.6858 29.1438 41.1977 28.9256C41.3383 28.8653 41.4857 28.8161 41.6354 28.7879C42.0529 28.7089 42.1756 28.917 42.2737 29.3175C42.3717 29.7188 42.2797 30.1036 42.1502 30.4815C42.0619 30.7396 41.9766 30.9985 41.8778 31.295C42.1704 31.2121 42.4278 31.1253 42.6905 31.0697C42.9898 31.0064 43.2868 31.0095 43.5345 31.2465C43.8361 31.5352 43.8211 31.8903 43.7178 32.2548C43.5869 32.7172 43.3018 33.0715 42.9636 33.3852C42.8491 33.4916 42.7383 33.6019 42.6456 33.6911C42.9321 33.853 43.2112 34.011 43.4896 34.1682C43.533 34.302 43.5757 34.4366 43.6191 34.5703C43.6191 34.6376 43.6191 34.7056 43.6183 34.7729C43.6161 34.7901 43.6138 34.8073 43.6108 34.8245C43.5682 34.9247 43.5248 35.024 43.4821 35.1242C43.3751 35.229 43.2689 35.3338 43.1619 35.4386C43.0309 35.5239 42.9007 35.6092 42.7698 35.6944C42.5393 35.7953 42.3081 35.8962 42.0776 35.9972C41.8277 36.0754 41.5778 36.1536 41.3286 36.2318C41.0757 36.2952 40.822 36.3578 40.5691 36.4211C40.2773 36.4235 40.2713 36.6746 40.2077 36.8756C40.0902 37.2081 39.9727 37.5405 39.8553 37.873C39.7804 38.0834 39.7056 38.2931 39.6315 38.5035C39.5335 38.7601 39.4347 39.0174 39.3367 39.274C39.1048 39.8052 38.8728 40.3371 38.6408 40.8682C38.4156 41.3165 38.1904 41.7639 37.9651 42.2122C37.8529 42.3944 37.7407 42.5767 37.6284 42.7582C37.5454 42.8771 37.4631 42.996 37.38 43.1149C37.0313 43.5084 36.7051 43.9316 36.2052 44.1342C35.9613 44.1381 35.7173 44.1428 35.4734 44.1467C34.984 43.8541 34.4954 43.5608 34.0061 43.2682L34.0076 43.269C33.9754 43.2447 33.9425 43.2205 33.9103 43.1955C33.8931 43.1845 33.8766 43.1735 33.8594 43.1634C33.6634 43.0108 33.4666 42.8583 33.2705 42.7058C33.0019 42.482 32.7333 42.2583 32.4639 42.0346C32.4407 42.0166 32.4167 41.9978 32.3935 41.9798L32.398 41.9837C32.3786 41.9681 32.3591 41.9524 32.3404 41.9368C32.3 41.9008 32.2589 41.8648 32.2185 41.8289C32.1908 41.8046 32.1631 41.7804 32.1354 41.7561L32.1197 41.7397C32.0957 41.7201 32.071 41.7006 32.0471 41.681C32.0164 41.656 31.9857 41.6302 31.9551 41.6051C31.9386 41.699 31.9221 41.7929 31.9064 41.8875C31.9079 41.9556 31.9102 42.0236 31.9117 42.0917C31.9124 42.1261 31.9132 42.1613 31.9147 42.1957C31.9289 42.5196 31.9423 42.8434 31.9566 43.1673C31.9588 43.2017 31.961 43.2361 31.9633 43.2705C31.9932 43.901 32.0239 44.5323 32.0538 45.1628C32.0583 45.2105 32.0636 45.2575 32.0681 45.3052C32.113 45.6838 32.1571 46.0632 32.202 46.4418C32.202 46.5286 32.202 46.6155 32.2012 46.7031C32.2057 47.727 32.2222 48.7518 32.2095 49.7758C32.2042 50.1841 32.1346 50.5917 32.0942 51C31.8817 51 31.67 51 31.4575 51C31.426 50.7982 31.3752 50.5964 31.3662 50.3938C31.3407 49.7789 31.3325 49.1633 31.316 48.5226C30.8372 48.6963 30.3874 48.7792 29.9175 48.697C29.1169 48.557 28.543 48.126 28.2601 47.3117C27.9937 46.5458 28.0109 45.7636 28.1464 44.9774C28.2227 44.5315 28.3245 44.451 28.7719 44.451C29.4798 44.451 30.1877 44.4518 30.8955 44.4557C31.0571 44.4564 31.1567 44.4228 31.1462 44.2139C31.0968 43.2119 31.0601 42.2082 31.0137 41.2062C31.007 41.0583 30.9763 40.9113 30.9599 40.7869C30.7676 40.8182 30.5925 40.88 30.4241 40.8651C30.2281 40.8479 30.1113 40.8847 30.0395 41.0888C29.9063 41.4667 29.6048 41.6106 29.2501 41.609C28.8954 41.6083 28.6051 41.4549 28.4592 41.0841C28.4292 41.0075 28.3896 40.9355 28.3477 40.8471C27.8635 40.941 27.4625 40.8244 27.2335 40.3387C27.0352 39.917 27.1691 39.5501 27.4565 39.2208C27.1759 38.8493 27.0202 38.4683 27.2679 38.0193C27.5126 37.575 27.9032 37.5147 28.3499 37.5765C28.5168 37.0923 28.8101 36.795 29.3279 36.8193C29.8053 36.842 29.9924 37.2081 30.1607 37.5742C30.3463 37.5577 30.5206 37.5413 30.7062 37.5249C30.475 36.6973 30.252 35.8845 30.0126 35.0772C29.9916 35.0053 29.8607 34.9255 29.7813 34.9255C29.5965 34.9247 29.4095 35.0037 29.2276 34.9912C28.7345 34.9575 28.6028 35.2517 28.5003 35.6913C28.2631 36.7067 27.4595 37.3239 26.465 37.3254C25.5342 37.327 24.631 36.6558 24.435 35.7022C24.2561 34.8308 24.1087 35.0342 23.5056 34.9231C23.2864 34.8824 23.1966 34.9841 23.142 35.1852C22.9856 35.7625 22.8195 36.3374 22.6601 36.914C22.5523 37.3035 22.3892 37.6884 22.3555 38.085C22.271 39.0667 22.2455 40.0531 22.1977 41.0388C22.1475 42.0815 22.1026 43.1243 22.0465 44.1662C22.0345 44.3915 22.1041 44.4619 22.3211 44.4572C22.9878 44.4431 23.6553 44.4494 24.322 44.4502C24.762 44.451 24.8892 44.5347 24.9311 44.9931C24.9812 45.5391 25.0224 46.0953 24.9752 46.6381C24.9049 47.4447 24.5659 48.1127 23.8229 48.4843C23.2056 48.7933 22.5725 48.7917 21.8931 48.5711C21.8804 48.7244 21.8647 48.8543 21.8609 48.9841C21.843 49.6037 21.828 50.2232 21.8123 50.8428C21.7794 50.8936 21.7457 50.9452 21.7128 50.9961C21.5167 50.9961 21.3214 50.9961 21.1254 50.9961C20.9189 50.7168 21.0012 50.3851 20.9705 50.0738C20.9862 49.3064 21.0027 48.539 21.0184 47.7716C20.9795 47.5346 20.9406 47.2976 20.9009 47.0598C20.8208 46.5185 20.9099 45.9928 21.0326 45.4702C21.0723 45.2614 21.1112 45.0533 21.1508 44.8444C21.1561 44.7607 21.1613 44.677 21.1658 44.5933C21.1957 43.998 21.2257 43.4027 21.2556 42.8067C21.2586 42.737 21.2608 42.6666 21.2638 42.597C21.2848 42.2176 21.3057 41.8382 21.3304 41.3869C21.0805 41.6247 20.8949 41.8015 20.7094 41.9775C20.5844 42.0917 20.4587 42.2059 20.3337 42.3201C20.2148 42.4273 20.0958 42.5344 19.9776 42.6424C19.7867 42.7918 19.5959 42.942 19.4051 43.0914C19.3744 43.1149 19.3438 43.1383 19.3131 43.1626C19.0998 43.3089 18.8858 43.4544 18.6726 43.6007C18.6389 43.6241 18.606 43.6476 18.5723 43.6711L18.5753 43.6679C18.3815 43.7587 18.1877 43.8486 17.9939 43.9394C17.958 43.9519 17.9228 43.9644 17.8869 43.9769C17.6572 43.9863 17.4282 43.9965 17.1985 44.0059C17.0376 43.9832 16.8767 43.9605 16.7166 43.9378C16.6358 43.9198 16.555 43.9018 16.4742 43.8838C16.4637 43.8721 16.451 43.869 16.436 43.8744C16.1734 43.7845 15.9115 43.6953 15.6488 43.6054C15.4655 43.5232 15.2882 43.4215 15.0981 43.366C15.0008 43.3378 14.8819 43.3902 14.7726 43.4067C14.5721 43.5639 14.3723 43.7219 14.1717 43.8791C14.1321 43.9104 14.0917 43.9425 14.052 43.9738C13.8582 44.0919 13.6637 44.2108 13.4699 44.3289C12.9453 44.5675 12.4201 44.803 11.8252 44.7154C11.5618 44.652 11.2774 44.6246 11.1607 44.3016C11.151 44.2742 11.1143 44.2578 11.0896 44.2366C11.0762 44.2179 11.0627 44.1999 11.0492 44.1811C10.9976 44.1146 10.9452 44.0473 10.8936 43.9808C10.8786 43.9605 10.8637 43.9402 10.8487 43.919L10.8509 43.9237C10.7335 43.7712 10.616 43.6187 10.4978 43.4669C10.4199 43.3644 10.3421 43.2619 10.265 43.1595C10.0997 42.9459 9.93356 42.7331 9.76819 42.5196C9.73527 42.4773 9.70235 42.4359 9.66867 42.3936C9.5295 42.0933 9.29155 41.983 8.98476 42.0017C8.80293 41.9814 8.6211 41.9618 8.43927 41.9415C8.13173 41.8766 7.82345 41.8109 7.51591 41.7459C7.06545 41.5504 6.615 41.3548 6.16529 41.1585C6.01264 40.9997 5.86074 40.8401 5.7081 40.6813C5.65123 40.5342 5.59361 40.3864 5.53674 40.2393C5.52552 40.1212 5.52926 39.9984 5.49858 39.8865C5.47314 39.7934 5.4058 39.7129 5.35716 39.6268C4.63358 39.1488 4.03647 38.5387 3.57179 37.7862C3.43187 37.4999 3.29194 37.2136 3.15201 36.9265C3.07494 36.8874 3.00161 36.8232 2.92155 36.813C2.72476 36.7888 2.52497 36.7896 2.32593 36.781C2.14036 36.702 1.95479 36.6237 1.76922 36.5447C1.64201 36.4305 1.51555 36.3163 1.38835 36.2021C1.2589 35.9627 1.12945 35.7234 1 35.484C1 35.1429 1 34.8019 1 34.46C1.00823 34.4577 1.02095 34.4577 1.02245 34.453C1.34121 33.562 1.94581 33.1059 2.86468 33.138C3.04127 33.1443 3.12134 33.0473 3.19691 32.9041C3.48948 32.3472 3.78879 31.7941 4.08585 31.2395C4.19061 31.1268 4.28938 31.0064 4.38815 30.8859ZM15.8127 31.2285C15.7962 31.277 15.7798 31.3247 15.7633 31.3732L15.7753 31.3811C15.7147 31.5375 15.6533 31.6948 15.5927 31.8512C15.5239 32.0108 15.455 32.1704 15.3862 32.3307C15.3211 32.4567 15.2695 32.5936 15.1879 32.707C15.0382 32.9166 14.9889 33.1263 15.1265 33.3602L15.128 33.3594C15.1393 33.404 15.1505 33.4486 15.1617 33.4939C15.1744 33.5307 15.1871 33.5682 15.1999 33.605C15.2687 33.9774 15.3375 34.3505 15.4064 34.7229C15.4258 34.9278 15.4453 35.1328 15.4648 35.3369C15.4722 35.4253 15.4797 35.5137 15.4865 35.6021C15.4909 35.6326 15.4947 35.6631 15.4992 35.6929C15.5336 35.7539 15.568 35.8157 15.6017 35.8767C15.6039 35.89 15.6107 35.8994 15.6226 35.9041L15.6271 35.9103C15.7057 35.9768 15.7843 36.0425 15.8628 36.109C15.9032 36.1458 15.9444 36.1825 15.9848 36.2193C16.0005 36.2334 16.0162 36.2467 16.0319 36.2608C16.13 36.3468 16.228 36.4321 16.326 36.5181C16.4734 36.6503 16.6238 36.7794 16.7675 36.9163C17.1618 37.2933 17.5532 37.6735 17.946 38.0529C17.9969 38.0357 18.0478 38.0177 18.0987 38.0005C18.1301 37.9676 18.1623 37.934 18.1937 37.9012C18.3396 37.7447 18.4855 37.5883 18.6314 37.4326C18.7317 37.3192 18.8312 37.2049 18.9315 37.0915C19.0841 36.9186 19.2375 36.7458 19.3902 36.5737C19.4642 36.4861 19.5383 36.3984 19.6124 36.3108C20.1384 35.6796 20.6645 35.0483 21.2257 34.3755C20.9952 34.2981 20.8276 34.2418 20.66 34.1854L20.6577 34.1909C20.6203 34.1729 20.5836 34.1549 20.5462 34.137C20.413 34.0806 20.2799 34.0251 20.1467 33.9688C20.0688 33.9351 19.9903 33.9015 19.9125 33.8671C19.7179 33.7701 19.5226 33.6731 19.3281 33.5761C18.8514 33.2757 18.3755 32.9753 17.8989 32.6749C17.7851 32.5897 17.6706 32.5044 17.5569 32.4191C17.408 32.2932 17.2591 32.1665 17.1102 32.0405C16.754 31.6721 16.3971 31.3028 16.0409 30.9344C16.0102 30.8953 15.9803 30.857 15.9257 30.7873C15.8987 30.907 15.8808 30.9845 15.8636 31.0627L15.8628 31.0752C15.8464 31.1237 15.8299 31.1714 15.8134 31.2199C15.8127 31.2191 15.8127 31.2285 15.8127 31.2285ZM33.2398 35.8368C33.266 35.8673 33.2922 35.8978 33.3184 35.9291C33.4007 36.0394 33.4838 36.1489 33.5661 36.2592C33.7135 36.4477 33.8609 36.6355 34.0083 36.824C34.0599 36.892 34.1116 36.9601 34.1639 37.0274C34.3346 37.2362 34.5052 37.4443 34.6758 37.6532C34.7139 37.7001 34.7521 37.7478 34.7902 37.7948C34.9571 38.0005 35.124 38.2055 35.3051 38.4284C35.5123 37.9246 35.7069 37.4514 35.9014 36.9773C35.971 36.806 36.0399 36.6339 36.1094 36.4626C36.1663 36.328 36.2232 36.1943 36.2793 36.0597C36.3437 35.9025 36.4088 35.7445 36.4731 35.5872C36.5487 35.4191 36.6976 35.261 36.5404 35.0616C36.4342 34.927 36.3234 34.7956 36.2142 34.6626C36.1214 34.5242 36.0361 34.3794 35.9329 34.2496C35.8071 34.0916 35.65 33.9578 35.5363 33.792C35.3896 33.5776 35.2721 33.3414 35.1419 33.1153C35.0843 32.9198 34.9736 32.8908 34.8142 32.9972C34.6114 33.1325 34.4064 33.264 34.2021 33.3962C33.6155 33.6699 33.0281 33.9437 32.4414 34.2175C32.327 34.259 32.2117 34.3004 32.0718 34.3505C32.3913 34.7534 32.6839 35.1218 32.9764 35.4902C33.0603 35.6021 33.1441 35.7132 33.2279 35.8251L33.2398 35.8368ZM4.82215 31.7433C4.67249 31.9678 4.52284 32.1923 4.37319 32.4168C4.2819 32.6061 4.19061 32.7954 4.09857 32.9847C4.0634 33.0504 4.01851 33.1122 3.99531 33.1826C3.77607 33.8334 3.66757 34.4984 3.68703 35.1953C3.73192 36.7958 4.5176 37.927 5.72306 38.8031C5.77469 38.8406 5.88693 38.8524 5.93482 38.8187C6.35684 38.5246 6.82002 38.426 7.31238 38.5004C7.80773 38.5755 8.30309 38.6615 8.79096 38.7749C9.07305 38.8406 9.18754 39.0628 9.13291 39.3147C9.08203 39.5501 8.88673 39.6714 8.60763 39.6331C8.52906 39.6221 8.45199 39.5947 8.37492 39.5705C7.89229 39.4195 7.39843 39.3389 6.89634 39.3874C6.70254 39.4062 6.47582 39.4086 6.38528 39.6761C6.29099 39.9514 6.38378 40.1556 6.57833 40.3214C6.71975 40.4419 6.8709 40.5647 7.03777 40.6359C7.72692 40.93 8.45199 41.0685 9.19278 41.128C9.55419 41.1569 9.91785 41.1749 10.2763 41.2281C10.5793 41.2735 10.6871 41.5066 10.5576 41.8023C10.4955 41.9446 10.506 42.0502 10.5995 42.1684C10.9909 42.662 11.3702 43.1665 11.7698 43.6531C11.8469 43.7469 12.004 43.8447 12.1043 43.8259C12.4223 43.7665 12.7658 43.7141 13.0374 43.5482C14.3057 42.7769 15.3907 41.7749 16.2684 40.5405C16.6306 40.0312 17.0107 39.5259 17.1386 38.879C17.1805 38.667 17.2112 38.455 17.0279 38.2938C16.54 37.866 16.0521 37.4381 15.5575 37.0188C15.5029 36.9726 15.3959 36.9468 15.3316 36.9695C14.8796 37.1283 14.6723 36.9758 14.6649 36.4767C14.6506 35.5951 14.5758 34.7197 14.3715 33.8616C14.2675 33.4251 14.1246 32.998 13.7819 32.7062C13.6629 32.6053 13.4407 32.5552 13.294 32.5959C13.1743 32.6295 13.0254 32.8259 13.0157 32.9604C12.988 33.343 13.0074 33.7325 13.0411 34.1158C13.0658 34.3982 13.1623 34.6728 13.1923 34.9552C13.2267 35.2853 13.1272 35.4042 12.8294 35.4738C12.643 35.5168 12.4432 35.3706 12.3684 35.1163C12.1709 34.4412 12.0579 33.7474 12.1342 33.0457C12.1671 32.7414 12.3392 32.4551 12.4403 32.1578C12.4657 32.0827 12.4941 31.974 12.462 31.9193C12.0579 31.2348 11.5408 30.6653 10.8711 30.2554C9.98893 29.7157 9.03714 29.5975 8.04643 29.754C6.75866 29.9574 5.71782 30.6223 4.87976 31.6509C4.86106 31.6822 4.8416 31.7127 4.82215 31.7433ZM26.6057 34.2778C28.3327 34.277 30.0313 34.0626 31.6857 33.5284C32.5896 33.2358 33.4508 32.8376 34.259 32.3198C34.4026 32.2282 34.5239 32.1328 34.4812 31.9161C34.4041 31.5273 34.461 31.1573 34.7648 30.8929C35.0626 30.634 35.4091 30.6864 35.7331 30.8413C35.9059 30.9235 36.0219 30.8961 36.1431 30.76C36.7791 30.0481 37.3403 29.2792 37.7803 28.4179C39.0546 25.9217 39.4684 23.2425 39.309 20.4459C39.2836 19.9993 39.2656 19.9797 38.9184 19.9492C37.7669 19.8491 36.6721 19.4986 35.5819 19.1294C33.7546 18.5106 32.0149 17.6736 30.2924 16.7928C28.2062 15.725 26.4224 14.2622 24.9378 12.3934C24.0032 11.2169 23.2033 9.94965 22.5336 8.59166C22.4543 8.43052 22.3877 8.31161 22.164 8.39688C19.5017 9.40521 17.4222 11.1606 15.9519 13.6904C14.608 16.0027 14.0034 18.5498 13.8515 21.2227C13.755 22.9132 14.0393 24.5606 14.5212 26.1713C15.5979 29.7696 17.8173 32.2157 21.2444 33.44C22.9833 34.0611 24.7799 34.2738 26.6057 34.2778ZM27.116 1.90495C25.811 1.87132 24.5165 2.07314 23.2378 2.37978C22.372 2.58708 21.5205 2.85539 20.77 3.37716C20.6832 3.43739 20.6098 3.56099 20.5836 3.66894C20.5051 3.99592 20.3861 4.10309 20.0666 4.11639C19.7276 4.13047 19.3857 4.13829 19.0504 4.18757C17.8697 4.35967 16.8139 4.8697 15.8381 5.56356C14.162 6.75649 12.9079 8.3476 11.9292 10.1843C10.919 12.0797 10.512 14.1136 10.7574 16.2734C10.925 17.7472 11.3777 19.1278 12.0946 20.4123C12.1522 20.5156 12.1978 20.5515 12.3228 20.5132C12.4664 20.4694 12.6296 20.4538 12.777 20.4757C12.9648 20.5046 13.0261 20.4193 13.0523 20.2535C13.1489 19.6387 13.2327 19.0207 13.3487 18.409C13.7422 16.3289 14.4681 14.3874 15.5979 12.6187C16.4644 11.2631 17.5427 10.1241 18.8207 9.19321C19.7441 8.52048 20.7423 7.99637 21.7958 7.5849C21.8677 7.55674 21.9575 7.46678 21.9664 7.3956C22.0084 7.06001 22.0922 6.9239 22.3323 6.87853C22.5583 6.83628 22.711 6.93641 22.8427 7.23445C23.3597 8.39844 23.9666 9.50846 24.6722 10.5582C25.4728 11.7496 26.3752 12.8495 27.4355 13.7968C28.8251 15.0382 30.4219 15.9331 32.0785 16.7036C33.2346 17.241 34.4161 17.7213 35.6029 18.1813C37.1024 18.7625 38.6401 19.1818 40.2616 19.1075C40.5527 19.0942 40.7016 19.289 40.742 19.5072C40.7816 19.7231 40.6185 19.9023 40.3663 19.9883C40.2765 20.0188 40.1448 20.1135 40.1419 20.1839C40.1359 20.3482 40.2167 20.5046 40.4165 20.4905C40.8003 20.4639 41.1326 20.5828 41.4259 20.8418C41.5366 20.9395 41.6376 20.9364 41.7132 20.7714C41.8876 20.3927 42.0903 20.0274 42.255 19.6441C43.0953 17.6822 43.1297 15.6765 42.5386 13.638C42.1921 12.4427 41.6451 11.3522 41.0188 10.2938C40.079 8.70587 38.9304 7.31581 37.5693 6.10957C36.173 4.87204 34.6301 3.88953 32.9368 3.16595C31.0759 2.37118 29.158 1.85724 27.116 1.90495ZM39.416 36.5737C39.3008 36.551 39.2155 36.5228 39.1287 36.5181C38.6431 36.49 38.1881 36.3492 37.7586 36.1129C37.2925 35.8571 37.2984 35.8595 37.0844 36.3797C36.6841 37.352 36.2778 38.3228 35.87 39.292C35.7099 39.673 35.4397 39.7434 35.13 39.4876C35.0222 39.3984 34.9175 39.2998 34.8292 39.1903C33.9327 38.0772 33.0378 36.9617 32.1474 35.8438C31.866 35.4902 31.5959 35.1281 31.3243 34.7659C31.209 34.6126 31.0803 34.5961 30.918 34.6783C30.7301 34.7737 30.8618 34.8965 30.8895 35.0013C31.2674 36.4595 31.8817 37.8675 31.768 39.4312C31.7209 40.0805 32.0007 40.5029 32.4878 40.8964C33.4711 41.692 34.4116 42.5438 35.5033 43.1845C35.745 43.3261 35.9561 43.33 36.1461 43.1383C36.3788 42.9037 36.6168 42.6643 36.8031 42.3905C37.4878 41.3837 38.0003 40.2776 38.4493 39.1395C38.7808 38.2985 39.0883 37.4459 39.416 36.5737ZM42.6224 34.7393C42.6231 34.7135 42.6231 34.6869 42.6239 34.6611C42.2512 34.5828 41.8748 34.5195 41.5074 34.4209C41.1198 34.3177 41.0338 33.9367 41.3174 33.6441C41.369 33.5902 41.4281 33.544 41.4842 33.4947C41.8397 33.1826 42.2063 32.8838 42.5453 32.5537C42.6979 32.405 42.7975 32.1962 42.9209 32.0139C42.903 31.9928 42.8857 31.9725 42.8678 31.9513C42.7922 31.9685 42.7122 31.9756 42.6411 32.0053C42.1592 32.2056 41.6788 32.4082 41.1992 32.6139C40.9934 32.7023 40.7891 32.7563 40.6103 32.567C40.4217 32.3675 40.4831 32.15 40.5893 31.9326C40.7509 31.6001 40.9208 31.2708 41.0637 30.9297C41.2074 30.5879 41.3219 30.2319 41.4491 29.8823C41.4109 29.858 41.3728 29.833 41.3353 29.8087C41.0675 30.1334 40.7861 30.4463 40.5362 30.7842C40.2376 31.1879 39.9727 31.6181 39.6809 32.0272C39.5425 32.2212 39.3607 32.3432 39.11 32.2376C38.8496 32.1281 38.8316 31.9028 38.8631 31.6635C38.9289 31.1667 39.0112 30.6723 39.0733 30.1756C39.1339 29.6867 39.1781 29.1947 39.229 28.7042C39.205 28.6979 39.1818 28.6917 39.1579 28.6854C39.0591 28.7832 38.9514 28.8739 38.8616 28.9803C38.3281 29.6202 38.0819 30.4025 37.8791 31.2027C37.7691 31.6369 37.695 32.0812 37.5813 32.5146C37.4765 32.9119 37.2199 33.0066 36.8974 32.7782C36.7163 32.6499 36.5577 32.4864 36.3811 32.3511C36.0511 32.0984 35.7151 31.8551 35.3821 31.6079C35.3582 31.633 35.3335 31.6572 35.3095 31.6822C35.3417 31.7612 35.3612 31.8489 35.4076 31.9169C35.9927 32.7657 36.5726 33.6191 37.1735 34.4553C37.6367 35.0991 38.2517 35.5497 39.0262 35.6092C39.5694 35.6514 40.1314 35.5755 40.6716 35.477C41.3585 35.3526 42.0148 35.1038 42.6224 34.7393ZM15.6563 42.6533C15.9915 42.7722 16.3305 42.8982 16.6725 43.0132C17.3107 43.2283 17.9049 43.1618 18.4391 42.705C19.2001 42.0541 19.9618 41.4025 20.7303 40.7619C21.296 40.2902 21.4778 39.6777 21.4546 38.94C21.4404 38.4792 21.4816 38.0005 21.5916 37.5546C21.8108 36.6621 22.0951 35.7867 22.3466 34.902C22.3645 34.8386 22.3428 34.7033 22.3144 34.6955C22.2328 34.672 22.1348 34.6822 22.0517 34.708C22.0061 34.7221 21.9762 34.7933 21.9403 34.8386C20.7109 36.4047 19.456 37.9457 18.0261 39.3217C17.9333 39.4109 17.8644 39.5306 17.7986 39.6448C17.5614 40.0578 17.3654 40.5037 17.0877 40.8839C16.65 41.4823 16.1584 42.0385 15.6563 42.6533ZM14.474 32.1297C14.5062 32.1305 14.5384 32.132 14.5706 32.1328C14.7674 31.5234 14.9559 30.9102 15.1654 30.3055C15.265 30.0184 15.2283 29.7876 15.0659 29.5303C14.8272 29.1524 14.5975 28.7597 14.4306 28.3436C14.1261 27.5879 13.8732 26.8104 13.5911 26.0453C13.5604 25.9608 13.4878 25.8443 13.4205 25.8325C13.1519 25.7856 12.878 25.7668 12.6056 25.7535C12.5308 25.7496 12.4403 25.7833 12.3782 25.8302C11.6628 26.3699 11.05 27.0177 10.5658 27.7897C10.512 27.875 10.518 28.0142 10.5254 28.1261C10.5419 28.3905 10.5905 28.6533 10.5965 28.9178C10.6003 29.0617 10.619 29.1462 10.7574 29.2095C11.8394 29.7016 12.6647 30.4971 13.2708 31.55C13.2985 31.5978 13.3621 31.6525 13.4093 31.6525C13.8268 31.6588 14.1792 31.8176 14.474 32.1297ZM31.3692 46.5983C31.3026 46.2384 31.2352 45.8903 31.1746 45.5414C31.1492 45.3959 31.0691 45.3498 30.9359 45.3506C30.344 45.3537 29.7522 45.3459 29.1603 45.3599C29.0892 45.3615 28.9732 45.4648 28.959 45.5383C28.8685 45.9951 28.9134 46.4473 29.0413 46.8947C29.191 47.4181 29.5172 47.7184 30.0328 47.8147C30.597 47.9203 31.0609 47.7576 31.2203 47.3367C31.3071 47.1075 31.322 46.847 31.3692 46.5983ZM24.2023 45.9498C24.1888 45.9466 24.1753 45.9435 24.1611 45.9404C24.1566 45.8426 24.1364 45.7417 24.1499 45.647C24.1843 45.3998 24.0713 45.3451 23.8603 45.349C23.2939 45.3592 22.7274 45.3474 22.161 45.3599C22.0787 45.3615 21.944 45.4358 21.9253 45.5039C21.7899 45.9928 21.706 46.4919 21.7637 47.005C21.7966 47.2968 21.9081 47.5385 22.1617 47.6903C22.806 48.0736 23.7877 47.713 24.0182 46.9792C24.1215 46.6507 24.1432 46.294 24.2023 45.9498ZM12.7553 21.3643C12.3849 21.3651 12.0983 21.5849 11.9763 21.9752C11.7646 22.6511 11.7646 23.3364 11.9943 24.0036C12.1686 24.5097 12.5188 24.8352 13.0508 24.9087C13.3097 24.9447 13.3187 24.9196 13.291 24.6459C13.1908 23.6493 13.0942 22.6511 13.0149 21.6522C12.9977 21.4363 12.9536 21.3236 12.7553 21.3643ZM41.3436 23.0063C41.2919 22.6597 41.2672 22.3531 41.1977 22.0589C41.0974 21.6389 40.7921 21.3792 40.4516 21.362C40.2878 21.3534 40.2129 21.4105 40.2077 21.5888C40.1725 22.6511 40.1194 23.7118 39.9032 24.7554C39.8777 24.8798 39.9076 24.9447 40.0588 24.9181C40.5931 24.8227 40.9844 24.5356 41.1505 23.9903C41.2508 23.6633 41.2852 23.3145 41.3436 23.0063ZM30.1323 39.2271C30.139 38.7397 29.7357 38.3134 29.265 38.3087C28.7951 38.304 28.3993 38.7147 28.3896 39.2153C28.3798 39.7027 28.7876 40.1353 29.2546 40.1353C29.7185 40.1353 30.1255 39.7144 30.1323 39.2271ZM25.1877 35.1703C25.297 35.9979 25.8799 36.4884 26.676 36.4117C27.2238 36.3586 27.7565 35.746 27.7184 35.1703C26.8796 35.1703 26.0385 35.1703 25.1877 35.1703ZM2.86618 34.2238C2.88039 34.0978 2.86094 33.9883 2.67836 34.0063C2.24362 34.0478 1.86799 34.4366 1.82983 34.8504C1.7752 35.4449 2.15158 35.8524 2.59156 35.9166C2.81679 35.9494 2.87591 35.908 2.86992 35.6764C2.8572 35.1993 2.86618 34.7213 2.86618 34.2238ZM7.98208 28.8286C8.23724 28.8098 8.49464 28.7754 8.7513 28.7777C9.0087 28.7793 9.26536 28.8223 9.52276 28.8387C9.75996 28.8536 9.8071 28.7832 9.75697 28.5384C9.64548 27.9884 9.17482 27.6591 8.63233 27.7592C8.18935 27.8414 7.84141 28.3999 7.98208 28.8286ZM28.1232 40.4098C28.1584 40.3879 28.2631 40.3567 28.308 40.2847C28.332 40.2464 28.2534 40.1368 28.2182 40.061C28.1561 39.9272 28.0835 39.7973 28.0304 39.6604C27.9713 39.5095 27.8822 39.4852 27.7752 39.5877C27.6488 39.7082 27.565 39.8411 27.6286 40.05C27.7004 40.2855 27.8321 40.3989 28.1232 40.4098ZM29.6983 37.715C29.6983 37.4952 29.4686 37.2746 29.2486 37.2832C29.0338 37.291 28.8116 37.5304 28.8168 37.7463C28.8206 37.8886 28.8879 37.9019 29.0099 37.8832C29.176 37.8573 29.3533 37.8323 29.5127 37.8683C29.6758 37.9058 29.7005 37.8503 29.6983 37.715ZM30.5842 39.529C30.4645 39.7504 30.3874 39.9694 30.2475 40.1282C30.1181 40.2753 30.2303 40.3699 30.2909 40.3715C30.4488 40.3746 30.6389 40.3621 30.7556 40.2714C30.8521 40.1955 30.918 39.989 30.897 39.8584C30.8723 39.7082 30.8012 39.504 30.5842 39.529ZM30.6209 38.9408C30.6853 38.8821 30.7361 38.8406 30.7803 38.7937C30.9644 38.5997 30.9696 38.4339 30.8027 38.1961C30.7077 38.0607 30.3987 37.9747 30.2655 38.0646C30.2236 38.0928 30.1862 38.2062 30.2079 38.2461C30.3306 38.4761 30.4712 38.6944 30.6209 38.9408ZM27.9234 38.9416C27.984 38.8117 28.0304 38.6897 28.0963 38.5802C28.1621 38.4706 28.2631 38.3815 28.3155 38.2673C28.3372 38.2195 28.2698 38.067 28.2481 38.0678C28.088 38.0764 27.892 38.06 27.7782 38.1499C27.4879 38.3799 27.5553 38.717 27.9234 38.9416ZM29.6908 40.5913C29.4327 40.5788 29.1955 40.5593 28.9583 40.5577C28.7824 40.5569 28.7914 40.6852 28.8333 40.8088C28.9104 41.0364 29.1393 41.171 29.3511 41.1209C29.5696 41.0685 29.702 40.8604 29.6908 40.5913ZM36.9191 31.6361C36.949 31.4358 36.9714 31.2903 36.9931 31.1448C36.9767 31.1394 36.9602 31.1339 36.9438 31.1284C36.8615 31.2356 36.7791 31.3435 36.6886 31.4616C36.7619 31.518 36.8188 31.561 36.9191 31.6361Z" fill="#FF9505" stroke="#FF9505" stroke-width="0.6"/>
<path d="M45.9533 38.6154C46.0551 38.8868 45.9825 39.1199 45.8074 39.3304C45.7738 39.364 45.7401 39.3976 45.7057 39.4305C45.2911 39.8482 44.81 40.1369 44.2421 40.2573C44.2084 40.2605 44.1747 40.2644 44.141 40.2675C43.7026 40.2339 43.2641 40.2002 42.8263 40.1666C42.7642 40.1423 42.7014 40.1181 42.6393 40.0938C42.3826 39.8052 42.3826 39.6315 42.6393 39.3335C42.6527 39.3272 42.6662 39.321 42.6797 39.3147C42.6961 39.3069 42.7126 39.2991 42.7283 39.2912C42.759 39.285 42.7904 39.278 42.8211 39.2717C42.9079 39.2873 42.9954 39.303 43.0822 39.3186C43.505 39.3984 43.9278 39.4657 44.3431 39.2803C44.5818 39.1301 44.8698 39.0261 45.0464 38.8188C45.2777 38.5465 45.4632 38.401 45.8007 38.4636C45.8516 38.5145 45.9025 38.5653 45.9533 38.6154Z" fill="#FF9505" stroke="#FF9505" stroke-width="0.6"/>
<path d="M44.6268 36.3084C44.7039 36.0627 44.7001 35.7608 45.0234 35.6873C45.4072 35.7092 45.5038 35.8202 45.5225 36.2599C45.4372 36.5157 45.3519 36.7715 45.2666 37.0273C45.2179 37.1024 45.1693 37.1782 45.1199 37.2533C45.1012 37.2799 45.0832 37.3057 45.0645 37.3323L45.0713 37.3245C45.0541 37.3441 45.0361 37.3636 45.0189 37.3832L45.0219 37.3793C44.8685 37.5146 44.7151 37.6507 44.5617 37.786C44.4719 37.8369 44.3821 37.8877 44.2931 37.9386C44.0476 38.0121 43.8022 38.0856 43.5568 38.1592C43.5224 38.1631 43.4887 38.1662 43.4543 38.1701C43.2208 38.1647 42.9844 38.1795 42.7539 38.1474C42.4538 38.106 42.3371 37.919 42.3648 37.592C42.4336 37.3542 42.617 37.2964 42.8227 37.2737C43.3996 37.3245 43.9369 37.2416 44.3627 36.7777C44.4502 36.6213 44.5385 36.4648 44.6268 36.3084Z" fill="#FF9505" stroke="#FF9505" stroke-width="0.6"/>
<path d="M29.0068 27.0856C28.9574 27.9203 28.8489 28.7589 28.4658 29.5309C28.0228 30.4235 27.0987 30.867 26.2621 30.576C25.7099 30.3836 25.3732 29.9393 25.0978 29.4339C24.8 28.8864 24.6608 28.284 24.5651 27.67C24.5247 27.4118 24.4281 27.2522 24.152 27.2303C23.9373 27.2139 23.8347 27.0449 23.8557 26.8165C23.8752 26.6014 24.0188 26.4559 24.2336 26.4731C24.6309 26.5052 25.0252 26.5662 25.4226 26.5983C26.3983 26.6781 27.3733 26.6992 28.3401 26.4919C28.3483 26.4903 28.3558 26.4888 28.364 26.4872C28.8781 26.4004 29.0143 26.5224 29.0068 27.0856ZM25.2737 27.3938C25.3014 27.5565 25.3163 27.6731 25.3418 27.7881C25.4779 28.4006 25.6396 29.0037 26.0526 29.4871C26.4874 29.9964 27.1137 30.0199 27.5417 29.5208C28.0677 28.9075 28.1627 28.1354 28.2278 27.3938C27.2401 27.3938 26.2771 27.3938 25.2737 27.3938Z" fill="#FF9505" stroke="#FF9505" stroke-width="0.6"/>
<path d="M22.3091 20.5741C22.3084 20.8698 22.1587 21.0599 21.9537 21.0967C21.7427 21.1342 21.5496 21.0059 21.4711 20.765C21.3588 20.4216 21.186 20.1447 20.8021 20.1212C20.3966 20.097 20.086 20.2816 19.9102 20.661C19.8279 20.8385 19.8017 21.0458 19.7598 21.2422C19.7201 21.4268 19.6558 21.6153 19.4635 21.6317C19.3191 21.6443 19.132 21.5989 19.0287 21.5027C18.9382 21.4182 18.8828 21.2164 18.9075 21.0865C18.9681 20.7666 19.0631 20.4498 19.1859 20.1502C19.2487 19.9961 19.2308 19.9264 19.138 19.8005C19.0085 19.626 18.906 19.418 18.8402 19.2083C18.8185 19.1387 18.9292 18.9627 19.0093 18.9369C19.0901 18.9111 19.2091 19.0088 19.3086 19.0581C19.325 19.0667 19.3295 19.1027 19.3393 19.1262C19.5331 19.5572 19.5667 19.565 20.0007 19.3781C20.6053 19.1176 21.192 19.1278 21.7262 19.565C22.0607 19.8388 22.2508 20.2065 22.3091 20.5741Z" fill="#FF9505" stroke="#FF9505" stroke-width="0.6"/>
<path d="M34.3017 21.0701C34.307 21.5293 34.0316 21.7734 33.6807 21.6185C33.4637 21.5231 33.439 21.3205 33.4225 21.1108C33.3866 20.6375 33.1277 20.2926 32.7049 20.151C32.345 20.0297 32.0262 20.1627 31.8392 20.514C31.7681 20.6469 31.7082 20.7877 31.6267 20.9129C31.5069 21.0959 31.3423 21.1593 31.1403 21.0568C30.9487 20.9598 30.8574 20.8003 30.9076 20.5797C30.9405 20.4334 30.9824 20.2824 31.052 20.1533C31.1642 19.9445 31.1246 19.7825 31.0063 19.5893C30.9121 19.4352 30.8544 19.2412 30.8372 19.0582C30.8298 18.9784 30.9547 18.8227 31.034 18.8118C31.1193 18.7992 31.2248 18.9103 31.3146 18.9792C31.3408 18.9995 31.3401 19.0574 31.352 19.0981C31.4546 19.4462 31.5167 19.4782 31.8377 19.346C32.9765 18.879 34.2875 19.7966 34.3017 21.0701Z" fill="#FF9505" stroke="#FF9505" stroke-width="0.6"/>
<path d="M21.8159 13.0638C21.7403 13.1436 21.6692 13.2844 21.5832 13.2946C21.4702 13.3087 21.2981 13.2578 21.233 13.1694C20.8499 12.6445 20.2408 12.679 19.928 13.2625C19.839 13.4284 19.7163 13.5254 19.5284 13.4518C19.3384 13.3783 19.307 13.225 19.3548 13.0364C19.4768 12.5554 19.8367 12.3559 20.2445 12.2253C20.8476 12.0328 21.4328 12.2417 21.6917 12.7322C21.7381 12.8205 21.7628 12.9191 21.8159 13.0638Z" fill="#FF9505" stroke="#FF9505" stroke-width="0.6"/>
<path d="M26.4173 20.8582C26.4726 20.8902 26.5931 20.9246 26.6605 21.006C26.7899 21.164 26.9074 21.34 26.9964 21.5262C27.0974 21.7366 27.0264 21.9291 26.8385 22.0527C26.6537 22.1747 26.4607 22.17 26.317 21.9815C26.192 21.818 26.0663 21.6459 25.9885 21.4566C25.874 21.1758 26.0843 20.8652 26.4173 20.8582Z" fill="#FF9505" stroke="#FF9505" stroke-width="0.6"/>
<path d="M29.2252 8.2693C29.3038 8.33892 29.4587 8.43592 29.5604 8.57516C30.0947 9.30657 30.5968 10.0638 31.146 10.7827C31.8554 11.712 32.6373 12.5764 33.5285 13.3172C34.38 14.0251 35.242 14.726 36.1415 15.3643C37.3192 16.2006 38.5823 16.8702 39.9778 17.2386C40.1402 17.2817 40.322 17.4107 40.4051 17.5554C40.4657 17.6618 40.4283 17.9051 40.3445 18.0052C40.2607 18.1054 40.0429 18.1773 39.9232 18.1359C39.1248 17.8582 38.3107 17.6047 37.5512 17.2339C35.8811 16.418 34.3838 15.3174 33.0002 14.0439C31.4296 12.5983 30.0423 10.9861 28.8907 9.15716C28.8294 9.05938 28.7703 8.95534 28.7359 8.84504C28.6431 8.55013 28.8511 8.25913 29.2252 8.2693Z" fill="#FF9505" stroke="#FF9505" stroke-width="0.6"/>
<path d="M7.56836 34.9709C7.94997 35.0515 8.11234 34.8575 8.04575 34.5101C7.99487 34.2473 8.05922 34.1793 8.29642 34.2434C8.65035 34.3388 8.87782 34.0932 8.79775 33.7232C8.7798 33.6426 8.84639 33.5417 8.87408 33.4502C8.96312 33.4995 9.09407 33.5253 9.13447 33.602C9.32079 33.9571 9.12624 34.4311 8.72218 34.5978C8.54709 34.6697 8.44981 34.7691 8.38396 34.9537C8.27098 35.2736 7.86242 35.5114 7.57509 35.4246C7.4636 35.391 7.37755 35.2658 7.28027 35.1829C7.37605 35.1125 7.47258 35.0421 7.56836 34.9709Z" fill="#FF9505" stroke="#FF9505" stroke-width="0.6"/>
<path d="M4.96945 34.7762C4.94101 34.5368 5.08019 34.3827 5.37426 34.385C5.80152 34.3882 6.19287 34.755 6.15171 35.1736C6.11654 35.5318 5.809 35.7423 5.49623 35.5905C5.17223 35.4325 4.96795 35.1892 4.96945 34.7762Z" fill="#FF9505" stroke="#FF9505" stroke-width="0.6"/>
<path d="M8.62714 31.0376C9.05964 31.0102 9.33799 31.3638 9.41955 31.7409C9.48765 32.0546 9.19582 32.3096 8.84488 32.2665C8.45279 32.218 8.12804 31.6728 8.25899 31.284C8.32184 31.0971 8.41089 31.0376 8.62714 31.0376Z" fill="#FF9505" stroke="#FF9505" stroke-width="0.6"/>
<path d="M6.9248 33.5197C6.93678 33.2749 7.16275 33.0331 7.3139 33.0472C7.45233 33.0597 7.53689 33.1411 7.5309 33.2975C7.52417 33.4712 7.26377 33.7372 7.11861 33.691C7.03106 33.6636 6.96671 33.5588 6.9248 33.5197Z" fill="#FF9505" stroke="#FF9505" stroke-width="0.6"/>
</svg>
