<svg width="90" height="86" viewBox="0 0 90 86" fill="none" xmlns="http://www.w3.org/2000/svg">
<path d="M45.4933 0C45.302 2.7372 45.0963 5.47441 44.9235 8.21983C44.7898 10.3159 44.6602 12.414 44.5964 14.5142C44.5676 15.4903 44.2447 15.9526 43.2017 15.8602C42.2658 15.7841 41.3196 15.8437 40.2993 15.8437C39.75 11.2509 39.2214 6.74026 38.6536 2.23579C38.557 1.45696 38.1332 0.669915 38.919 0.00821845L45.4933 0Z" fill="#FF9505"/>
<path d="M89.8222 38.1319C85.4387 38.7052 81.0552 39.2662 76.6696 39.856C74.5467 40.1396 74.5488 40.1622 74.0613 38.0476C73.5943 36.0502 73.5902 36.0358 75.5711 35.4132C79.8806 34.0569 84.1962 32.7191 88.6106 31.3423C89.022 32.9349 89.4334 34.509 89.8284 36.081L89.8222 38.1319Z" fill="#FF9505"/>
<path d="M63.0808 46.8756C63.6033 48.425 64.1093 49.958 64.6401 51.4972C65.0515 52.7055 64.6935 53.772 64.0086 54.7543C61.8343 57.8758 59.1992 60.5329 55.9861 62.5775C54.2932 63.6502 52.6496 64.8257 50.86 65.7093C48.6467 66.8025 46.1967 66.7039 43.7818 66.5847C41.3668 66.4655 39.3098 65.3517 37.2343 64.2585C34.8934 63.0255 32.4414 61.998 30.1972 60.6151C28.1278 59.3451 26.2415 57.7689 24.3347 56.2524C23.627 55.6914 23.1004 54.9002 22.4833 54.2385C21.6441 53.3611 21.749 52.348 21.9835 51.2958C22.3949 49.4217 23.4419 47.9031 24.7605 46.4893C23.3987 45.0775 24.3059 43.7993 25.104 42.7123C27.5107 39.3997 30.0408 36.1693 32.5463 32.9348C32.8242 32.6504 33.2038 32.4878 33.6016 32.4827C41.0192 32.458 48.4382 32.4532 55.8586 32.4683C56.7822 32.4683 57.5227 32.6347 58.0987 33.58C59.9089 36.5556 61.861 39.4449 63.7555 42.3814C63.874 42.5887 63.9771 42.8044 64.0641 43.0267C65.0659 45.2563 64.9568 45.6673 63.0808 46.8756ZM28.7531 46.816C28.7481 46.9711 28.7612 47.1263 28.7922 47.2784C28.9054 47.599 29.037 47.9154 29.181 48.2237C31.5487 53.3426 35.6977 56.5914 40.5564 59.1355C42.5558 60.1815 44.656 60.389 46.8139 60.1856C47.6943 60.1034 48.7207 59.902 49.379 59.3759C51.9299 57.3597 54.1046 54.9096 55.8031 52.1384C56.8912 50.3526 57.7963 48.4559 58.7899 46.59C56.9797 45.768 56.9673 45.7515 55.9347 47.0277C54.3981 48.9367 52.4789 50.2683 50.0269 51.1581C49.9858 50.4923 49.9076 49.958 49.9282 49.4279C50.0619 46.0207 53.5013 42.4163 56.5765 42.2355C56.9879 42.2108 57.5413 42.0855 57.7922 41.7999C58.1008 41.4546 58.3867 40.8279 58.2797 40.4271C57.8107 38.6229 55.5871 37.7536 53.96 38.6229C51.4771 39.9668 48.8894 41.0231 46.0589 41.3169C42.5723 41.6786 39.462 40.6141 36.574 38.7277C36.1626 38.4523 35.5455 38.1729 35.1135 38.2715C34.5757 38.3863 34.0702 38.619 33.6334 38.9527C33.1965 39.2863 32.8393 39.7127 32.5875 40.2011C32.0341 41.2286 32.4167 41.9766 33.5337 42.2807C34.3921 42.4935 35.2272 42.7909 36.0268 43.1685C38.8223 44.5658 40.5523 48.3428 39.7068 51.2938C39.3283 51.228 38.8984 51.2444 38.5549 51.0883C36.3909 50.0608 34.5252 48.6778 33.2066 46.6352C33.0441 46.3865 32.6389 46.1071 32.3838 46.142C31.1722 46.3043 29.9791 46.5756 28.7531 46.816ZM45.5035 39.5682C47.3672 39.562 48.7598 38.2859 48.7598 36.607C48.7598 34.9281 47.2685 33.6211 45.3719 33.6376C43.5206 33.6561 42.1897 34.9363 42.2061 36.683C42.2226 38.3907 43.5761 39.5764 45.5035 39.5682Z" fill="#FF9505"/>
<path d="M39.931 86.0001C40.1923 80.7805 40.4515 75.6369 40.7148 70.4112C42.0477 70.4112 43.2902 70.3906 44.5285 70.4379C44.6848 70.4379 44.9276 70.7893 44.9584 71.003C45.5906 75.5075 46.2077 80.014 46.8097 84.5226C46.8715 84.9829 46.8653 85.4514 46.8941 86.0001H39.931Z" fill="#FF9505"/>
<path d="M15.8474 10.1267L21.7037 6.44629C24.2154 11.0864 26.7085 15.6936 29.253 20.3851L25.7746 22.5263L15.8474 10.1267Z" fill="#FF9505"/>
<path d="M18.9967 56.2505C19.7681 57.1095 20.4242 57.8945 21.1298 58.6137C21.6502 59.148 21.5968 59.5816 21.1051 60.0974C20.1424 61.1064 19.2147 62.1523 18.2726 63.1798C16.7134 64.884 15.1548 66.589 13.597 68.2946C12.7947 69.1679 11.9843 70.0331 11.0915 70.9948L6.43439 65.7732L18.9967 56.2505Z" fill="#FF9505"/>
<path d="M81.0963 68.7856C79.6214 70.6187 78.2164 72.3757 76.7477 74.1943L65.1913 63.5085C65.9422 62.5776 66.6415 61.622 67.4541 60.7692C67.6372 60.5781 68.2769 60.611 68.5793 60.7692C69.7867 61.4576 70.9449 62.2303 72.1132 62.9824C75.0898 64.9038 78.0498 66.8211 81.0963 68.7856Z" fill="#FF9505"/>
<path d="M55.4452 17.3725C57.1463 13.2893 58.8146 9.29655 60.4746 5.30171C60.7043 4.77613 60.9028 4.23748 61.0691 3.68856C61.2521 3.04742 61.5792 2.98371 62.1243 3.27757C63.9119 4.23929 65.7097 5.18046 67.6022 6.17917C66.4832 7.89095 65.3868 9.54314 64.3109 11.2118C62.6982 13.7202 61.0979 16.2361 59.5098 18.7596C59.226 19.2097 58.9318 19.4337 58.4361 19.1439C57.4487 18.5685 56.4654 17.9787 55.4452 17.3725Z" fill="#FF9505"/>
<path d="M53.9744 69.4986L57.7141 67.8362L66.2055 80.9879L59.9398 84.1197C57.9568 79.2617 55.9985 74.4573 53.9744 69.4986Z" fill="#FF9505"/>
<path d="M1.56746 52.1033L0.00823212 45.3405L15.7137 43.2239C15.9728 44.4568 16.2485 45.6631 16.4583 46.8796C16.483 47.0194 16.1765 47.3071 15.9708 47.3831C14.3128 47.9873 12.6528 48.5852 10.9763 49.1278C7.86609 50.1306 4.75174 51.0985 1.56746 52.1033Z" fill="#FF9505"/>
<path d="M78.8089 14.2717C80.2015 16.1808 81.5468 18.022 82.8983 19.8694L70.5458 27.7317C69.9637 28.1016 69.435 28.1961 68.9989 27.5262C68.6036 26.8579 68.1709 26.2123 67.703 25.5925C67.2731 25.0726 67.3327 24.7561 67.8182 24.3266C70.0727 22.3237 72.3107 20.303 74.5323 18.2645C75.6575 17.237 76.7395 16.1561 77.8483 15.1081C78.1404 14.8204 78.4592 14.58 78.8089 14.2717Z" fill="#FF9505"/>
<path d="M27.5724 82.6998L21.2944 79.9133C22.3908 77.8399 23.4522 75.8466 24.5033 73.8491C25.7046 71.562 26.9224 69.281 28.0805 66.9712C28.5166 66.102 29.0411 66.0691 29.7981 66.5006C30.3812 66.8401 30.9874 67.1382 31.6124 67.3925C32.1966 67.6226 32.2583 67.9494 32.0794 68.5063C31.2017 71.2585 30.3412 74.0156 29.4978 76.7775C28.9897 78.4338 28.5187 80.1003 28.0126 81.7546C27.8888 82.0798 27.7416 82.3957 27.5724 82.6998Z" fill="#FF9505"/>
<path d="M72.7057 52.9583C73.0183 51.7458 73.3002 50.5683 73.6498 49.4093C73.6992 49.247 74.0798 49.062 74.2855 49.0846C76.324 49.3086 78.381 49.5737 80.4195 49.8347C82.7988 50.1388 85.1767 50.4478 87.5533 50.7615C88.0861 50.8314 88.6188 50.9177 89.3244 51.0225C88.7937 53.2829 88.2959 55.4427 87.7405 57.7566L72.7057 52.9583Z" fill="#FF9505"/>
<path d="M2.68238 30.1256C3.50519 27.9124 4.28481 25.8101 5.0891 23.6504C6.73473 24.3635 8.25899 25.0026 9.76885 25.6848C12.7392 27.0246 15.6931 28.4035 18.6696 29.729C19.2147 29.9714 19.4225 30.2715 19.2044 30.8119C18.8527 31.6914 18.503 32.573 18.0916 33.4238C17.9929 33.6293 17.6596 33.7217 17.4231 33.8491C17.386 33.8697 17.3037 33.7978 17.2379 33.7813L2.68238 30.1256Z" fill="#FF9505"/>
<path d="M45.9273 28.6008C42.7533 28.5741 40.4391 26.8192 39.9763 24.3039C39.6101 22.3024 40.7374 20.0234 43.2819 19.0699C45.9108 18.0856 48.6405 19.0145 50.1894 21.4085C51.543 23.5004 50.7243 26.2931 48.6857 27.5261C47.7004 28.1262 46.5094 28.383 45.9273 28.6008Z" fill="#FF9505"/>
<path d="M84.3012 41.467C84.2292 42.8809 84.2066 44.1385 84.0626 45.3715C84.0358 45.5996 83.5154 45.9592 83.2398 45.9427C81.446 45.8359 79.6585 45.6427 77.8668 45.4804C76.8259 45.3879 75.781 45.3016 74.6743 45.2071C74.7175 44.2864 74.7545 43.4871 74.7998 42.5356L84.3012 41.467Z" fill="#FF9505"/>
<path d="M16.3822 37.322C16.4151 37.5727 16.4439 37.733 16.4562 37.9077C16.5982 39.5907 16.3863 39.9318 14.7859 40.1085C12.1632 40.4003 9.53227 40.6141 6.7635 40.873C6.87253 39.4797 6.93424 38.1707 7.11937 36.8823C7.15023 36.6768 7.75294 36.3747 8.06355 36.4055C10.82 36.6727 13.5702 37.0035 16.3822 37.322Z" fill="#FF9505"/>
<path d="M23.4419 24.9882C22.9935 25.6231 22.6726 26.1965 22.2303 26.6506C22.0967 26.7474 21.9422 26.8115 21.7793 26.8375C21.6163 26.8636 21.4495 26.8509 21.2923 26.8006C20.2515 26.3896 19.2497 25.8677 18.2335 25.3889L13.3172 23.0627C14.1976 21.803 15.0369 20.5967 15.9214 19.335L23.4419 24.9882Z" fill="#FF9505"/>
<path d="M60.9971 66.7761C63.0541 65.1095 63.1199 65.0478 64.8684 66.8418C66.514 68.5187 67.9869 70.3352 69.5214 72.084L66.3947 74.4411L60.9971 66.7761Z" fill="#FF9505"/>
<path d="M72.4774 32.9059C72.3951 32.6429 72.3436 32.4086 72.2511 32.1949C71.5126 30.4934 71.4982 30.477 73.0595 29.505C74.9108 28.3583 76.7621 27.2445 78.6237 26.1184C78.9138 25.9437 79.2285 25.8163 79.6728 25.5964L81.339 29.7228L72.4774 32.9059Z" fill="#FF9505"/>
<path d="M10.5402 58.3052C9.87168 56.8955 9.25252 55.5886 8.59427 54.1953L16.8532 50.4019C16.9952 50.4758 17.0795 50.4902 17.1083 50.5395C18.6079 52.9685 18.3549 52.615 16.4912 53.9056C14.4918 55.2865 12.5787 56.7887 10.5402 58.3052Z" fill="#FF9505"/>
<path d="M78.525 62.5734L70.4265 57.8983C70.5849 57.5387 70.6733 57.2819 70.7988 57.062C71.6216 55.5886 71.6216 55.5906 73.2138 56.1208L80.6993 58.6011L78.525 62.5734Z" fill="#FF9505"/>
<path d="M26.1078 64.0632L21.5926 72.3242L18.0566 69.5561C20.0766 67.1313 22.0184 64.8071 24.0569 62.3638L26.1078 64.0632Z" fill="#FF9505"/>
<path d="M37.4173 79.3645L33.0297 78.3514L35.4364 69.4575C35.5372 69.4164 35.5989 69.363 35.6524 69.3712C38.2669 69.813 38.1085 69.552 37.9275 72.205C37.7835 74.3031 37.6621 76.4033 37.5161 78.5035C37.5078 78.7665 37.4605 79.0295 37.4173 79.3645Z" fill="#FF9505"/>
<path d="M28.2738 9.91118L32.6162 8.56519L35.278 17.457C34.5951 17.6748 33.9327 17.9296 33.2498 18.0735C33.1136 18.0865 32.9763 18.0662 32.8498 18.0143C32.7233 17.9624 32.6113 17.8804 32.5237 17.7755C31.1023 15.1965 29.7179 12.6011 28.2738 9.91118Z" fill="#FF9505"/>
<path d="M54.5195 78.8037C53.1063 79.0873 51.9132 79.3134 50.7284 79.5723C50.1792 79.6935 49.9817 79.4305 49.9056 78.9558C49.4469 76.196 48.9881 73.4362 48.5068 70.5489C49.1712 70.3845 49.883 70.1729 50.6111 70.064C50.7357 70.0672 50.8575 70.1016 50.9653 70.1641C51.0732 70.2266 51.1636 70.3151 51.2282 70.4215C52.3144 73.1464 53.3758 75.8795 54.5195 78.8037Z" fill="#FF9505"/>
<path d="M54.034 7.68572L50.8477 16.5755C50.0928 16.2837 49.3872 16.1131 48.8112 15.7412C48.5623 15.5809 48.4512 14.9911 48.4986 14.6253C48.7043 13.0533 48.9881 11.4936 49.2288 9.92768C49.4057 8.77485 49.5579 7.61791 49.7431 6.30273L54.034 7.68572Z" fill="#FF9505"/>
<path d="M67.3245 12.5557L70.4224 15.7655L63.9942 22.2509C63.8516 22.2116 63.7137 22.1572 63.5827 22.0886C61.6101 20.4446 61.8919 20.7652 63.268 18.6342C64.5372 16.6759 65.8578 14.7504 67.3245 12.5557Z" fill="#FF9505"/>
</svg>
