<svg width="50" height="50" viewBox="0 0 50 50" fill="none" xmlns="http://www.w3.org/2000/svg">
<g clip-path="url(#clip0)">
<path d="M26.9919 13.7942C26.2723 13.7942 25.5771 14.0397 25.0001 14.492C24.4231 14.0397 23.728 13.7942 23.0084 13.7942C21.1285 13.7942 19.599 15.459 19.599 17.5056C19.599 19.552 21.1285 21.2169 23.0084 21.2169C23.7276 21.2169 24.4226 20.9715 25.0001 20.5192C25.5773 20.9714 26.2725 21.2169 26.9919 21.2169C28.8718 21.2169 30.4011 19.5521 30.4011 17.5056C30.4011 15.459 28.8718 13.7942 26.9919 13.7942ZM23.5177 19.0547C23.3754 19.1256 23.2053 19.1759 23.0083 19.1759C22.2538 19.1759 21.6399 18.4266 21.6399 17.5055C21.6399 16.5844 22.2538 15.835 23.0084 15.835C23.2055 15.835 23.3757 15.8852 23.5178 15.9562C23.1092 16.3472 22.8531 16.8965 22.8531 17.5054C22.8531 18.1145 23.1091 18.6637 23.5177 19.0547ZM25 17.6115C24.9416 17.6115 24.8939 17.5639 24.8939 17.5055C24.8939 17.447 24.9415 17.3995 25 17.3995C25.0584 17.3995 25.1059 17.447 25.1059 17.5055C25.1059 17.5639 25.0584 17.6115 25 17.6115ZM26.9919 19.1759C26.7948 19.1759 26.6246 19.1256 26.4825 19.0547C26.8911 18.6637 27.147 18.1145 27.147 17.5056C27.147 16.8967 26.8911 16.3475 26.4825 15.9564C26.6248 15.8855 26.7949 15.8352 26.9919 15.8352C27.7464 15.8352 28.3602 16.5846 28.3602 17.5057C28.3602 18.4268 27.7464 19.1759 26.9919 19.1759Z" fill="#EC4E20"/>
<path d="M21.6503 10.51C20.9659 10.51 20.4089 11.0821 20.4089 11.7854C20.4089 12.4888 20.9658 13.061 21.6503 13.061C22.3349 13.061 22.8918 12.4888 22.8918 11.7854C22.8918 11.0821 22.3349 10.51 21.6503 10.51Z" fill="#EC4E20"/>
<path d="M28.3514 10.51C27.6667 10.51 27.1099 11.0821 27.1099 11.7854C27.1099 12.4888 27.6668 13.061 28.3514 13.061C29.0359 13.061 29.5928 12.4888 29.5928 11.7854C29.5927 11.0821 29.0358 10.51 28.3514 10.51Z" fill="#EC4E20"/>
<path d="M25.0043 30.8792C25.0029 30.8792 25.0015 30.8792 25 30.8792C24.4385 30.8792 23.9821 31.3333 23.9797 31.8954L23.9796 31.9193C23.9773 32.4829 24.4322 32.9417 24.9958 32.944C24.9973 32.944 24.9987 32.944 25.0002 32.944C25.5618 32.944 26.0182 32.4899 26.0205 31.9278L26.0206 31.9039C26.0229 31.3402 25.568 30.8815 25.0043 30.8792Z" fill="#EC4E20"/>
<path d="M38.8223 27.516L32.6011 21.2947C33.8661 20.1186 34.8582 18.653 35.4727 17.0053C37.4338 16.913 39.0026 15.2032 39.0026 13.114C39.0026 11.0272 37.4375 9.31875 35.4794 9.22285C34.8324 7.47295 33.7587 5.92686 32.3783 4.71387C32.6871 3.72734 32.9887 1.98486 31.9895 0.461035C31.8007 0.173242 31.4799 0 31.1359 0C29.4232 0 27.9009 0.424805 26.7403 0.894043C26.3198 0.402734 25.6958 0.090332 24.9999 0.090332C24.3038 0.090332 23.6798 0.402734 23.2591 0.894043C22.0988 0.424902 20.5765 0 18.8639 0C18.5201 0 18.1992 0.173145 18.0106 0.46084C17.0112 1.98477 17.3128 3.72773 17.6217 4.71396C16.2414 5.92705 15.1677 7.47285 14.5207 9.22275C12.5626 9.31846 10.9974 11.0271 10.9974 13.1139C10.9974 15.2031 12.5662 16.913 14.5274 17.0052C15.1418 18.6531 16.134 20.1184 17.399 21.2945L11.1778 27.5158C10.6152 28.0783 10.3054 28.8261 10.3054 29.6216C10.3054 30.4171 10.6152 31.1648 11.1777 31.727C11.7582 32.3075 12.5205 32.5978 13.2831 32.5978C14.0456 32.5978 14.8082 32.3074 15.3886 31.7271L17.4848 29.631V46.4246C17.4848 48.3961 19.0887 50.0001 21.0604 50.0001C23.0321 50.0001 24.6362 48.3962 24.6362 46.4246V38.7458C24.6362 38.5453 24.7994 38.3822 25 38.3822C25.2004 38.3822 25.3635 38.5454 25.3635 38.7458V46.4245C25.3635 48.396 26.9674 50 28.939 50C30.9109 50 32.515 48.3961 32.515 46.4245V29.6309L34.6111 31.727C35.1736 32.2894 35.9212 32.599 36.7167 32.599C37.512 32.599 38.2598 32.2894 38.8221 31.7271C39.3846 31.1646 39.6944 30.4169 39.6944 29.6215C39.6944 28.8261 39.3846 28.0782 38.8223 27.516ZM36.051 11.46C36.5902 11.7661 36.9615 12.3916 36.9615 13.1139C36.9615 13.8369 36.5894 14.463 36.0494 14.7688C36.1298 14.2286 36.1726 13.6762 36.1726 13.1139C36.1728 12.5523 36.1309 12.0002 36.051 11.46ZM13.0382 13.1139C13.0382 12.3916 13.4096 11.7659 13.9488 11.4598C13.869 12.0001 13.8271 12.5522 13.8271 13.1139C13.8271 13.6763 13.8699 14.2286 13.9503 14.7689C13.4103 14.4629 13.0382 13.837 13.0382 13.1139ZM30.5144 2.06377C30.6656 2.52285 30.6571 3.00928 30.5911 3.43184C29.9054 3.03662 29.1722 2.71211 28.4005 2.46768C29.0347 2.27324 29.7482 2.11963 30.5144 2.06377ZM25 2.13125C25.1378 2.13125 25.25 2.24346 25.25 2.38135C25.25 2.51934 25.1378 2.63164 25 2.63164C24.8619 2.63164 24.7497 2.51934 24.7497 2.38135C24.7496 2.24336 24.862 2.13125 25 2.13125ZM19.4854 2.06377C20.2516 2.11973 20.9652 2.27334 21.5993 2.46768C20.8277 2.71221 20.0944 3.03672 19.4087 3.43193C19.3428 3.00947 19.3343 2.52285 19.4854 2.06377ZM13.9454 30.2838C13.5801 30.6491 12.9857 30.6491 12.6204 30.2838C12.4434 30.1069 12.3459 29.8718 12.3459 29.6216C12.3459 29.3714 12.4434 29.1361 12.6205 28.9592L17.4845 24.0949V26.7444H17.4846L13.9454 30.2838ZM30.4741 46.4245C30.4741 47.2707 29.7855 47.9591 28.939 47.9591C28.0928 47.9591 27.4044 47.2707 27.4044 46.4245V38.7457C27.4044 37.4198 26.3258 36.3412 25 36.3412C23.674 36.3412 22.5953 37.4198 22.5953 38.7457V46.4244C22.5953 47.2706 21.9068 47.959 21.0604 47.959C20.2142 47.959 19.5257 47.2706 19.5257 46.4244V22.8491C20.8645 23.605 22.3733 24.0928 23.9795 24.2394V28.5981C23.9795 29.1616 24.4364 29.6186 25.0001 29.6186C25.5636 29.6186 26.0205 29.1616 26.0205 28.5981V24.2394C27.6266 24.0927 29.1354 23.605 30.4742 22.8492V46.4245H30.4741ZM25 22.2459C19.9645 22.2459 15.868 18.1493 15.868 13.1139C15.8681 8.6126 19.1123 4.82959 23.4954 4.10713C23.8982 4.45879 24.4245 4.67256 25.0001 4.67256C25.5754 4.67256 26.1017 4.45879 26.5045 4.10703C30.8878 4.82939 34.132 8.6123 34.132 13.1139C34.1319 18.1493 30.0353 22.2459 25 22.2459ZM37.3791 30.2839C37.0138 30.6492 36.4195 30.6492 36.0542 30.2839L32.5149 26.7447V24.0949L37.3792 28.9591C37.5561 29.136 37.6536 29.3713 37.6536 29.6215C37.6536 29.8717 37.5561 30.1068 37.3791 30.2839Z" fill="#EC4E20"/>
</g>
<defs>
<clipPath id="clip0">
<rect width="50" height="50" fill="white"/>
</clipPath>
</defs>
</svg>
