<svg width="86" height="86" viewBox="0 0 86 86" fill="none" xmlns="http://www.w3.org/2000/svg">
<g clip-path="url(#clip0)">
<path d="M54.8966 38.3031C55.0571 38.3576 55.222 38.3833 55.3824 38.3833C56.0136 38.3833 56.6023 37.9868 56.8157 37.3557C57.2894 35.9663 58.8044 35.2202 60.1938 35.6908C63.1632 36.6958 66.4035 35.1021 67.41 32.1312C67.6794 31.3411 67.2556 30.48 66.4641 30.2106C65.6695 29.9427 64.8129 30.3664 64.5435 31.158C64.0713 32.5489 62.5563 33.295 61.1654 32.8228C58.2005 31.8224 54.9572 33.4131 53.9492 36.3825C53.6813 37.1725 54.1051 38.0337 54.8966 38.3031Z" fill="black"/>
<path d="M58.4776 27.7572C58.638 27.8117 58.8029 27.8374 58.9634 27.8374C59.5945 27.8374 60.1832 27.4409 60.3966 26.8098C60.6252 26.1363 61.1019 25.5914 61.7406 25.2766C62.3793 24.9618 63.1012 24.9164 63.7747 25.1449C66.7441 26.1499 69.983 24.5562 70.9909 21.5837C71.2603 20.7937 70.835 19.9325 70.045 19.6631C69.2535 19.3907 68.3938 19.819 68.1259 20.6106C67.6537 22.003 66.1418 22.7491 64.7479 22.2769C63.307 21.7881 61.7648 21.8879 60.4027 22.5614C59.0406 23.2334 58.0205 24.3973 57.5316 25.8366C57.2607 26.6281 57.686 27.4878 58.4776 27.7572Z" fill="black"/>
<path d="M62.0554 17.2113C62.2173 17.2658 62.3808 17.2915 62.5427 17.2915C63.1738 17.2915 63.7626 16.895 63.976 16.2639C64.3241 15.2378 65.4456 14.6853 66.4702 15.0334C67.7339 15.4617 69.0885 15.374 70.2856 14.7852C71.4813 14.195 72.3757 13.1749 72.8056 11.9111C73.075 11.1211 72.6512 10.2599 71.8597 9.99054C71.0651 9.71963 70.2085 10.1464 69.9391 10.938C69.7695 11.4359 69.4169 11.8385 68.9462 12.0701C68.4755 12.3016 67.9428 12.3364 67.4433 12.1654C64.8371 11.2861 61.9933 12.6845 61.1095 15.2892C60.8416 16.0823 61.2638 16.9419 62.0554 17.2113Z" fill="black"/>
<path d="M73.0189 38.191C72.7556 38.0109 72.459 37.908 72.1563 37.8686C75.1635 28.0961 76.8132 18.5219 77.0493 9.40325C77.1235 6.53522 75.722 2.70614 72.8964 0.933867C71.5403 0.0817823 69.3185 -0.620469 66.4338 0.864247C61.9131 3.19651 58.6803 10.0571 56.0832 15.5722C55.9334 15.89 55.7866 16.2003 55.6413 16.5075C55.0677 13.8695 53.3241 11.6129 50.8451 10.4354C50.2609 7.62644 48.033 5.42585 45.2331 4.85527C45.2029 4.69787 45.165 4.5435 45.1181 4.38761C44.5415 2.41707 42.8025 0.933867 40.7911 0.694738C39.6575 0.560039 38.5345 0.794627 37.575 1.35613C36.7577 0.900571 35.8405 0.658415 34.8991 0.658415C32.2672 0.658415 30.056 2.49426 29.4794 4.95062C26.6023 5.7346 24.4925 8.37561 24.4698 11.4449C21.1871 12.2925 18.7958 15.2589 18.7958 18.7868C18.7958 19.7221 18.9714 20.6483 19.3089 21.5216C18.4568 22.5735 17.9846 23.8902 17.9846 25.272C17.9846 26.1014 18.1556 26.9005 18.478 27.6391C16.966 25.9894 14.8381 24.6409 12.4483 24.7287C11.6129 24.7559 10.956 25.4536 10.9818 26.2891C11.0075 27.1078 11.6795 27.7556 12.4937 27.7556C12.5452 27.7571 12.5921 27.7526 12.6405 27.7526C14.0586 27.7526 15.3769 28.6909 16.3364 29.7806C13.936 30.4723 11.0423 31.5983 9.69228 34.144C8.87954 35.6801 8.78419 37.5644 9.32602 39.7226C9.06419 40.16 8.92041 40.6685 8.94765 41.2104L11.5236 77.8167C11.7582 82.4071 15.5418 86.0016 20.1367 86.0016H62.6214C67.2163 86.0016 71 82.4071 71.2331 77.8439L73.8741 39.9648C73.8741 39.9557 73.8756 39.9466 73.8756 39.9375C73.918 39.2398 73.5956 38.5875 73.0189 38.191ZM56.8763 20.836C57.4756 19.7176 58.1294 18.3312 58.8211 16.8616C61.0958 12.0306 64.2136 5.41526 67.8202 3.55369C69.1369 2.87565 70.2705 2.86203 71.2875 3.49617C73.0417 4.59798 74.0738 7.37823 74.0239 9.32455C73.7923 18.2722 72.1578 27.689 69.1641 37.3147C69.0658 37.631 68.8478 38.2697 68.5376 39.146L65.9586 40.2917C65.9026 40.3174 65.8481 40.3447 65.7952 40.378C65.0505 40.8244 64.2151 41.0454 63.3796 41.0545C62.5442 41.0454 61.7103 40.8244 60.9657 40.378L59.8866 39.7302C58.6455 38.9856 57.2546 38.6133 55.8638 38.6133C55.8471 38.6133 55.8305 38.6163 55.8123 38.6163C54.4048 38.6072 52.9942 38.975 51.738 39.7302L50.6604 40.378C50.0596 40.7382 49.3952 40.9137 48.7232 40.9894C48.761 40.8577 48.8049 40.7291 48.8443 40.5989C49.259 39.1899 49.7039 37.8005 50.1701 36.4217C50.3471 35.8981 50.5318 35.3775 50.7164 34.8583C51.1054 33.7641 51.5125 32.6835 51.9333 31.6104C52.1209 31.1307 52.3041 30.6463 52.4978 30.1711C53.8175 26.952 55.2735 23.8297 56.8763 20.836ZM37.5825 24.426C37.7596 24.199 37.9321 23.978 38.0956 23.7631C38.0956 23.76 38.0971 23.7585 38.0986 23.757C38.2182 23.5981 38.3226 23.4331 38.4104 23.2682C38.7827 22.5674 38.8705 21.7804 38.698 21.0116L45.0152 19.6298C45.0576 19.8235 45.103 20.0157 45.1756 20.1943C45.4586 20.8875 45.9641 21.4641 46.6679 21.8667C46.8979 21.9938 47.1386 22.121 47.3868 22.2526C47.5911 22.3601 47.7954 22.4721 48.0013 22.5841C48.0996 22.637 48.1995 22.69 48.2979 22.7445C48.478 22.8459 48.6521 22.9579 48.8276 23.0684C48.9775 23.1607 49.1258 23.2561 49.2711 23.3575C49.4391 23.474 49.5995 23.6026 49.7599 23.7328C49.9007 23.8478 50.0354 23.9734 50.1686 24.1021C50.3123 24.2428 50.4546 24.3866 50.5863 24.544C50.8194 24.8225 51.0433 25.1116 51.2265 25.4582C50.5848 26.8748 49.9809 28.3201 49.3967 29.7776C49.3059 30.0031 49.209 30.2226 49.1197 30.4481C47.461 30.8688 45.8582 31.6558 43.8786 33.0649C41.3844 34.8371 39.5273 35.3078 36.4671 34.8644L35.5484 30.6584C34.9249 27.8146 36.2764 26.0923 37.5825 24.426ZM45.0878 15.2347C45.1272 15.2271 45.1665 15.2226 45.2059 15.2226C45.4919 15.2226 45.7598 15.4269 45.8219 15.7144C45.8703 15.9324 45.7886 16.1034 45.7341 16.1866C45.6811 16.2684 45.5616 16.4121 45.3451 16.4591L36.9847 18.2888C36.6517 18.3615 36.3127 18.1405 36.2401 17.8106C36.1674 17.4791 36.3869 17.1386 36.7183 17.066L41.1604 16.0943L45.0878 15.2347ZM40.1963 38.6435C40.0813 38.6511 39.9647 38.6541 39.8497 38.6662C39.0249 38.7495 38.2106 38.9583 37.4372 39.3064L37.1482 37.9821C37.584 38.0185 38.0184 38.0548 38.4255 38.0548C41.065 38.0548 43.1899 37.2693 45.6327 35.5318C46.4015 34.984 47.0826 34.5693 47.7304 34.2257C47.5911 34.6207 47.4534 35.0142 47.3187 35.4107C47.2218 35.6953 47.1174 35.9753 47.0236 36.2613C46.5786 37.6083 46.1548 38.9659 45.7598 40.3356L44.7534 39.7332C43.5123 38.9886 42.1214 38.6163 40.7306 38.6163C40.7124 38.6163 40.6927 38.6193 40.6746 38.6193C40.5141 38.6163 40.3552 38.6344 40.1963 38.6435ZM22.0937 22.9927L23.085 22.1754L22.4418 21.0661C22.0392 20.3699 21.8258 19.5829 21.8258 18.7868C21.8258 16.335 23.7464 14.3357 26.1982 14.2327L28.0356 14.1556L27.6072 12.3666C27.5346 12.067 27.4983 11.7718 27.4983 11.4918C27.4983 9.54249 29.0208 7.90038 30.9641 7.75206L32.3626 7.64611V6.14021C32.4065 4.7796 33.5279 3.68536 34.9007 3.68536C35.6907 3.68536 36.2567 4.04556 36.5912 4.34826L37.6521 5.30629L38.6692 4.30134C39.1353 3.84125 39.7755 3.62633 40.4354 3.70201C41.2466 3.79736 41.9792 4.42999 42.2153 5.24272C42.2955 5.51515 42.3182 5.77849 42.2864 6.04637L42.1093 7.73692H43.8135C45.9883 7.73692 47.8075 9.43655 47.9574 11.6069L48.0255 12.6012L48.9653 12.9312C51.3309 13.7621 52.8868 16.0005 52.8338 18.5053C52.8111 19.5753 52.466 20.606 51.8409 21.5095C50.8284 20.6499 49.7372 20.0702 48.8201 19.5874C48.5824 19.4618 48.3524 19.3407 48.1208 19.2121C48.0558 19.1757 47.9771 19.1122 47.9498 18.9533C47.9135 18.7353 47.9952 18.4735 48.1602 18.2813C48.8201 17.5155 49.0849 16.4712 48.8715 15.4859L48.6884 14.652C48.5052 13.8105 48.0028 13.0916 47.2763 12.6254C46.5514 12.1608 45.6887 12.0049 44.8487 12.1896L44.4431 12.2788C44.4386 12.2804 44.434 12.2789 44.4295 12.2804L39.9874 13.252L35.6529 14.1979C34.8129 14.3811 34.094 14.882 33.6278 15.61C33.1617 16.335 33.0073 17.1991 33.1904 18.0391L33.2812 18.4508C33.2812 18.4523 33.2812 18.4538 33.2812 18.4553C33.2812 18.4568 33.2828 18.4584 33.2828 18.4614L33.372 18.8715C33.5915 19.8795 34.2922 20.7286 35.2442 21.1372C35.4803 21.2386 35.6771 21.4308 35.7452 21.626C35.7845 21.738 35.7618 21.7956 35.674 21.9409C35.674 21.9409 35.674 21.9409 35.674 21.9424C35.5242 22.1437 35.3623 22.348 35.1973 22.5583C35.0308 22.7702 34.8583 22.9927 34.6827 23.2228C34.6237 23.2999 34.5677 23.3802 34.5087 23.4589C34.3831 23.6299 34.2574 23.8039 34.1333 23.9856C34.0652 24.0839 34.0001 24.1853 33.9335 24.2882C33.8185 24.4653 33.708 24.6485 33.5991 24.8361C33.5355 24.9451 33.4735 25.0526 33.4129 25.1661C33.2994 25.3779 33.1965 25.6004 33.0951 25.8274C33.0512 25.9243 33.0043 26.0166 32.9649 26.118C32.8317 26.448 32.7137 26.793 32.6199 27.1563C32.6047 27.2138 32.5987 27.2758 32.585 27.3349C32.5124 27.6436 32.4534 27.963 32.4155 28.2959C32.4004 28.4291 32.3974 28.5683 32.3883 28.7061C32.3762 28.8847 32.3535 29.0542 32.3535 29.2403C32.3474 29.2328 32.3414 29.2252 32.3353 29.2176C32.3141 29.1904 32.2929 29.1662 32.2733 29.1389C32.0099 28.7923 31.7466 28.473 31.4817 28.1703C31.3985 28.075 31.3137 27.9826 31.229 27.8918C31.0065 27.6512 30.784 27.4257 30.56 27.2138C30.4874 27.1457 30.4147 27.0715 30.3406 27.0049C30.0575 26.7522 29.773 26.5206 29.487 26.3148C29.4068 26.2573 29.325 26.2088 29.2448 26.1544C29.0299 26.0106 28.815 25.8774 28.597 25.7593C28.4911 25.7018 28.3867 25.6458 28.2792 25.5944C28.0537 25.4839 27.8267 25.3901 27.5982 25.3083C27.5225 25.2811 27.4468 25.2448 27.3711 25.2205C27.1229 25.1418 26.8732 25.0783 26.622 25.0314C26.5932 25.0253 26.5645 25.0283 26.5357 25.0238C26.4842 25.0147 26.4343 24.995 26.3828 24.9875C26.2073 24.9617 26.0408 24.9723 25.8683 24.9602C25.7472 24.9527 25.6276 24.9269 25.5065 24.9269C25.4702 24.9269 25.4324 24.936 25.3945 24.936C25.16 24.939 24.9329 24.9663 24.7044 24.995C24.5909 25.0102 24.4774 25.0193 24.3639 25.0404C24.0657 25.0949 23.7766 25.1706 23.4906 25.2614C23.4467 25.275 23.4043 25.2856 23.3604 25.3008C22.6067 25.5565 21.8924 25.9183 21.2234 26.3556C21.0857 26.0151 21.013 25.6489 21.013 25.272C21.0146 24.3866 21.4081 23.5557 22.0937 22.9927ZM12.3696 35.5591C13.0098 34.3528 14.5641 33.4326 17.2627 32.6608C18.5249 32.3006 19.6963 31.6271 20.6468 30.719C21.0781 30.3058 21.4822 29.9562 21.8727 29.6384C23.0926 28.647 24.1444 28.1082 25.0964 27.9857C25.1176 27.9826 25.1388 27.9796 25.16 27.9781C25.4611 27.9448 25.7532 27.9539 26.0363 28.0038C26.1104 28.0174 26.1861 28.0432 26.2618 28.0628C26.4025 28.0977 26.5418 28.1325 26.6825 28.1885C26.7733 28.2233 26.8641 28.2762 26.9564 28.3186C27.0881 28.3822 27.2183 28.4397 27.3499 28.5199C27.4529 28.582 27.5558 28.6622 27.6587 28.7333C27.7813 28.8196 27.9039 28.8983 28.028 28.9982C28.143 29.0905 28.258 29.2025 28.3731 29.3069C28.4881 29.4113 28.6031 29.5067 28.7181 29.6232C28.8453 29.7519 28.9739 29.9017 29.1025 30.0455C29.207 30.162 29.3114 30.2695 29.4174 30.3951C29.5611 30.5676 29.7064 30.7644 29.8517 30.9551C29.944 31.0762 30.0348 31.1851 30.1272 31.3138C30.2921 31.5438 30.4586 31.7996 30.6251 32.0539C30.6977 32.1659 30.7719 32.2658 30.8446 32.3808C31.0852 32.7607 31.3274 33.1648 31.571 33.5946C32.6849 35.5606 33.0542 38.4649 32.5699 40.9939C32.4897 40.9864 32.411 40.9743 32.3308 40.9622C31.7541 40.8638 31.1987 40.6791 30.6932 40.3764L29.6141 39.7287C28.3731 38.9841 26.9822 38.6117 25.5913 38.6117C25.5746 38.6117 25.558 38.6148 25.5398 38.6148C24.1323 38.6057 22.7218 38.9735 21.4656 39.7287L20.9404 40.0435C20.0247 40.5929 18.9986 40.8698 17.9725 40.8789C16.9448 40.8698 15.9202 40.5944 15.0046 40.0435L12.9689 38.8206C12.9689 38.8206 12.9674 38.8206 12.9674 38.8191C12.6995 38.6602 12.4105 38.5512 12.1138 38.4967C11.8762 37.2996 11.961 36.3309 12.3696 35.5591ZM68.2182 77.6608C68.0654 80.6393 65.609 82.9731 62.6275 82.9731H20.1413C17.1582 82.9731 14.7034 80.6393 14.549 77.6321L12.0306 41.8506L13.3473 42.6406C14.7745 43.4972 16.3773 43.918 17.9755 43.9089C19.5752 43.918 21.1765 43.4972 22.6037 42.6406L23.1289 42.3258C23.8735 41.8778 24.7074 41.6568 25.5429 41.6478C26.3783 41.6568 27.2122 41.8778 27.9584 42.3258L29.0375 42.9736C30.4026 43.7924 31.9494 44.1435 33.478 44.0602C33.6142 44.0542 33.7504 44.0542 33.8881 44.0421C33.9048 44.0406 33.9199 44.0315 33.9381 44.03C34.9718 43.9134 35.9858 43.588 36.9211 43.0553C37.0089 43.0235 37.1028 43.022 37.1845 42.9736L38.2636 42.3258C39.0082 41.8778 39.8421 41.6568 40.6776 41.6478C41.513 41.6568 42.3469 41.8778 43.0931 42.3258L44.1722 42.9736C45.3179 43.6592 46.5922 44.0148 47.8741 44.0678C47.8999 44.0693 47.9271 44.0723 47.9528 44.0723C48.3948 44.086 48.8367 44.0723 49.2756 44.0103C49.5268 43.9785 49.7705 43.9149 50.0172 43.8589C50.1368 43.8302 50.2563 43.8045 50.3744 43.7697C51.0464 43.5835 51.7047 43.3398 52.3177 42.9721L53.3968 42.3243C54.1414 41.8763 54.9753 41.6553 55.8108 41.6463C56.6462 41.6553 57.4801 41.8763 58.2263 42.3243L59.3054 42.9721C60.5555 43.7212 61.9585 44.089 63.36 44.0829C63.3827 44.0829 63.4069 44.0875 63.4296 44.0875C64.7887 44.0875 66.1493 43.7333 67.3692 43.022L70.3386 41.7023C70.4022 41.6735 70.4476 41.619 70.5066 41.5827L70.7381 41.4798L68.2182 77.6608Z" fill="black"/>
<path d="M18.027 65.0853H28.6213C29.4567 65.0853 30.1347 64.4088 30.1347 63.5718C30.1347 62.7349 29.4567 62.0583 28.6213 62.0583H18.027C17.1915 62.0583 16.5135 62.7349 16.5135 63.5718C16.5135 64.4088 17.1915 65.0853 18.027 65.0853Z" fill="black"/>
<path d="M18.027 71.1392H31.6482C32.4836 71.1392 33.1617 70.4626 33.1617 69.6257C33.1617 68.7887 32.4836 68.1122 31.6482 68.1122H18.027C17.1915 68.1122 16.5135 68.7887 16.5135 69.6257C16.5135 70.4626 17.1915 71.1392 18.027 71.1392Z" fill="black"/>
<path d="M34.6751 74.1661H18.027C17.1915 74.1661 16.5135 74.8426 16.5135 75.6796C16.5135 76.5165 17.1915 77.193 18.027 77.193H34.6751C35.5106 77.193 36.1886 76.5165 36.1886 75.6796C36.1886 74.8426 35.5106 74.1661 34.6751 74.1661Z" fill="black"/>
<path d="M43.756 74.1661H40.729C39.8936 74.1661 39.2156 74.8426 39.2156 75.6796C39.2156 76.5165 39.8936 77.193 40.729 77.193H43.756C44.5914 77.193 45.2694 76.5165 45.2694 75.6796C45.2694 74.8426 44.5914 74.1661 43.756 74.1661Z" fill="black"/>
</g>
<defs>
<clipPath id="clip0">
<rect width="86" height="86" fill="white"/>
</clipPath>
</defs>
</svg>
