<svg width="86" height="86" viewBox="0 0 86 86" fill="none" xmlns="http://www.w3.org/2000/svg">
<g clip-path="url(#clip0)">
<path d="M54.8966 38.3033C55.057 38.3577 55.222 38.3835 55.3824 38.3835C56.0136 38.3835 56.6023 37.9869 56.8157 37.3558C57.2894 35.9664 58.8044 35.2203 60.1938 35.691C63.1632 36.6959 66.4035 35.1023 67.41 32.1313C67.6794 31.3413 67.2556 30.4801 66.4641 30.2107C65.6695 29.9428 64.8129 30.3666 64.5435 31.1581C64.0713 32.549 62.5563 33.2952 61.1654 32.823C58.2005 31.8226 54.9572 33.4132 53.9492 36.3827C53.6813 37.1727 54.1051 38.0339 54.8966 38.3033Z" fill="#EC4E20"/>
<path d="M58.4776 27.7572C58.638 27.8117 58.8029 27.8374 58.9634 27.8374C59.5945 27.8374 60.1832 27.4409 60.3966 26.8098C60.6252 26.1363 61.1019 25.5914 61.7406 25.2766C62.3793 24.9618 63.1012 24.9164 63.7747 25.145C66.7441 26.1499 69.983 24.5562 70.9909 21.5838C71.2603 20.7937 70.835 19.9326 70.045 19.6632C69.2535 19.3907 68.3938 19.819 68.1259 20.6106C67.6537 22.003 66.1418 22.7491 64.7479 22.2769C63.307 21.7881 61.7648 21.888 60.4027 22.5615C59.0406 23.2334 58.0205 24.3973 57.5316 25.8366C57.2607 26.6282 57.686 27.4878 58.4776 27.7572Z" fill="#EC4E20"/>
<path d="M62.0554 17.2115C62.2173 17.266 62.3808 17.2917 62.5427 17.2917C63.1738 17.2917 63.7626 16.8952 63.976 16.264C64.3241 15.2379 65.4456 14.6855 66.4702 15.0336C67.7339 15.4619 69.0885 15.3741 70.2856 14.7854C71.4813 14.1951 72.3757 13.175 72.8056 11.9113C73.075 11.1213 72.6512 10.2601 71.8597 9.9907C71.0651 9.71978 70.2085 10.1466 69.9391 10.9381C69.7695 11.4361 69.4169 11.8386 68.9462 12.0702C68.4755 12.3018 67.9428 12.3366 67.4433 12.1656C64.8371 11.2862 61.9933 12.6847 61.1095 15.2894C60.8416 16.0824 61.2638 16.9421 62.0554 17.2115Z" fill="#EC4E20"/>
<path d="M73.0189 38.1911C72.7556 38.011 72.459 37.9081 72.1563 37.8687C75.1635 28.0962 76.8132 18.522 77.0493 9.40336C77.1235 6.53533 75.722 2.70625 72.8964 0.933974C71.5403 0.0818891 69.3185 -0.620362 66.4338 0.864354C61.9131 3.19661 58.6803 10.0572 56.0832 15.5723C55.9334 15.8901 55.7866 16.2004 55.6413 16.5076C55.0677 13.8696 53.3241 11.613 50.8451 10.4355C50.2609 7.62654 48.033 5.42596 45.2331 4.85538C45.2029 4.69798 45.165 4.5436 45.1181 4.38772C44.5415 2.41718 42.8025 0.933974 40.7911 0.694845C39.6575 0.560146 38.5345 0.794734 37.575 1.35623C36.7577 0.900677 35.8405 0.658522 34.8991 0.658522C32.2672 0.658522 30.056 2.49436 29.4794 4.95073C26.6023 5.73471 24.4925 8.37571 24.4698 11.445C21.1871 12.2926 18.7958 15.259 18.7958 18.7869C18.7958 19.7222 18.9714 20.6485 19.3089 21.5217C18.4568 22.5736 17.9846 23.8903 17.9846 25.2721C17.9846 26.1015 18.1556 26.9006 18.478 27.6392C16.966 25.9895 14.8381 24.641 12.4483 24.7288C11.6129 24.756 10.956 25.4537 10.9818 26.2892C11.0075 27.108 11.6795 27.7557 12.4937 27.7557C12.5452 27.7572 12.5921 27.7527 12.6405 27.7527C14.0586 27.7527 15.3769 28.691 16.3364 29.7807C13.936 30.4724 11.0423 31.5984 9.69228 34.1441C8.87954 35.6803 8.78419 37.5645 9.32602 39.7227C9.06419 40.1601 8.92041 40.6687 8.94765 41.2105L11.5236 77.8168C11.7582 82.4072 15.5418 86.0017 20.1367 86.0017H62.6214C67.2163 86.0017 71 82.4072 71.2331 77.8441L73.8741 39.9649C73.8741 39.9558 73.8756 39.9467 73.8756 39.9377C73.918 39.2399 73.5956 38.5876 73.0189 38.1911ZM56.8763 20.8361C57.4756 19.7177 58.1294 18.3313 58.8211 16.8617C61.0958 12.0307 64.2136 5.41536 67.8202 3.55379C69.1369 2.87576 70.2705 2.86214 71.2875 3.49628C73.0417 4.59809 74.0738 7.37834 74.0239 9.32466C73.7923 18.2723 72.1578 27.6891 69.1641 37.3148C69.0658 37.6311 68.8478 38.2698 68.5376 39.1461L65.9586 40.2918C65.9026 40.3175 65.8481 40.3448 65.7952 40.3781C65.0505 40.8245 64.2151 41.0455 63.3796 41.0546C62.5442 41.0455 61.7103 40.8245 60.9657 40.3781L59.8866 39.7303C58.6455 38.9857 57.2546 38.6134 55.8638 38.6134C55.8471 38.6134 55.8305 38.6164 55.8123 38.6164C54.4048 38.6073 52.9942 38.9751 51.738 39.7303L50.6604 40.3781C50.0596 40.7383 49.3952 40.9138 48.7232 40.9895C48.761 40.8578 48.8049 40.7292 48.8443 40.599C49.259 39.19 49.7039 37.8006 50.1701 36.4219C50.3471 35.8982 50.5318 35.3776 50.7164 34.8584C51.1054 33.7642 51.5125 32.6836 51.9333 31.6105C52.1209 31.1308 52.3041 30.6464 52.4978 30.1712C53.8175 26.9521 55.2735 23.8298 56.8763 20.8361ZM37.5825 24.4261C37.7596 24.1991 37.9321 23.9781 38.0956 23.7632C38.0956 23.7602 38.0971 23.7586 38.0986 23.7571C38.2182 23.5982 38.3226 23.4332 38.4104 23.2683C38.7827 22.5675 38.8705 21.7805 38.698 21.0117L45.0152 19.6299C45.0576 19.8236 45.103 20.0158 45.1756 20.1944C45.4586 20.8876 45.9641 21.4642 46.6679 21.8668C46.8979 21.9939 47.1386 22.1211 47.3868 22.2527C47.5911 22.3602 47.7954 22.4722 48.0013 22.5842C48.0996 22.6372 48.1995 22.6901 48.2979 22.7446C48.478 22.846 48.6521 22.958 48.8276 23.0685C48.9775 23.1608 49.1258 23.2562 49.2711 23.3576C49.4391 23.4741 49.5995 23.6028 49.7599 23.7329C49.9007 23.8479 50.0354 23.9736 50.1686 24.1022C50.3123 24.243 50.4546 24.3867 50.5863 24.5441C50.8194 24.8226 51.0433 25.1117 51.2265 25.4583C50.5848 26.8749 49.9809 28.3202 49.3967 29.7777C49.3059 30.0032 49.209 30.2227 49.1197 30.4482C47.461 30.8689 45.8582 31.6559 43.8786 33.065C41.3844 34.8372 39.5273 35.3079 36.4671 34.8645L35.5484 30.6586C34.9249 27.8147 36.2764 26.0924 37.5825 24.4261ZM45.0878 15.2348C45.1272 15.2272 45.1665 15.2227 45.2059 15.2227C45.4919 15.2227 45.7598 15.427 45.8219 15.7145C45.8703 15.9325 45.7886 16.1035 45.7341 16.1867C45.6811 16.2685 45.5616 16.4122 45.3451 16.4592L36.9847 18.289C36.6517 18.3616 36.3127 18.1406 36.2401 17.8107C36.1674 17.4792 36.3869 17.1387 36.7183 17.0661L41.1604 16.0944L45.0878 15.2348ZM40.1963 38.6436C40.0813 38.6512 39.9647 38.6542 39.8497 38.6663C39.0249 38.7496 38.2106 38.9584 37.4372 39.3065L37.1482 37.9822C37.584 38.0186 38.0184 38.0549 38.4255 38.0549C41.065 38.0549 43.1899 37.2694 45.6327 35.5319C46.4015 34.9841 47.0826 34.5694 47.7304 34.2258C47.5911 34.6208 47.4534 35.0143 47.3187 35.4109C47.2218 35.6954 47.1174 35.9754 47.0236 36.2614C46.5786 37.6084 46.1548 38.966 45.7598 40.3357L44.7534 39.7333C43.5123 38.9887 42.1214 38.6164 40.7306 38.6164C40.7124 38.6164 40.6927 38.6194 40.6746 38.6194C40.5141 38.6164 40.3552 38.6346 40.1963 38.6436ZM22.0937 22.9928L23.085 22.1755L22.4418 21.0662C22.0392 20.37 21.8258 19.583 21.8258 18.7869C21.8258 16.3351 23.7464 14.3358 26.1982 14.2328L28.0356 14.1557L27.6072 12.3667C27.5346 12.0671 27.4983 11.7719 27.4983 11.492C27.4983 9.5426 29.0208 7.90048 30.9641 7.75216L32.3626 7.64622V6.14032C32.4065 4.77971 33.5279 3.68546 34.9007 3.68546C35.6907 3.68546 36.2567 4.04567 36.5912 4.34837L37.6521 5.30639L38.6692 4.30145C39.1353 3.84135 39.7755 3.62644 40.4354 3.70211C41.2466 3.79746 41.9792 4.43009 42.2153 5.24283C42.2955 5.51525 42.3182 5.7786 42.2864 6.04648L42.1093 7.73703H43.8135C45.9883 7.73703 47.8075 9.43666 47.9574 11.607L48.0255 12.6013L48.9653 12.9313C51.3309 13.7622 52.8868 16.0006 52.8338 18.5054C52.8111 19.5754 52.466 20.6061 51.8409 21.5096C50.8284 20.65 49.7372 20.0703 48.8201 19.5875C48.5824 19.4619 48.3524 19.3408 48.1208 19.2122C48.0558 19.1758 47.9771 19.1123 47.9498 18.9534C47.9135 18.7354 47.9952 18.4736 48.1602 18.2814C48.8201 17.5156 49.0849 16.4713 48.8715 15.486L48.6884 14.6521C48.5052 13.8106 48.0028 13.0917 47.2763 12.6255C46.5514 12.1609 45.6887 12.005 44.8487 12.1897L44.4431 12.279C44.4386 12.2805 44.434 12.279 44.4295 12.2805L39.9874 13.2521L35.6529 14.198C34.8129 14.3812 34.094 14.8821 33.6278 15.6101C33.1617 16.3351 33.0073 17.1993 33.1904 18.0392L33.2812 18.4509C33.2812 18.4524 33.2812 18.4539 33.2812 18.4554C33.2812 18.4569 33.2828 18.4585 33.2828 18.4615L33.372 18.8716C33.5915 19.8796 34.2922 20.7287 35.2442 21.1373C35.4803 21.2387 35.6771 21.4309 35.7452 21.6262C35.7845 21.7382 35.7618 21.7957 35.674 21.941C35.674 21.941 35.674 21.941 35.674 21.9425C35.5242 22.1438 35.3623 22.3481 35.1973 22.5585C35.0308 22.7703 34.8583 22.9928 34.6827 23.2229C34.6237 23.3001 34.5677 23.3803 34.5087 23.459C34.3831 23.63 34.2574 23.804 34.1333 23.9857C34.0652 24.084 34.0001 24.1854 33.9335 24.2884C33.8185 24.4654 33.708 24.6486 33.5991 24.8362C33.5355 24.9452 33.4735 25.0527 33.4129 25.1662C33.2994 25.3781 33.1965 25.6005 33.0951 25.8276C33.0512 25.9244 33.0043 26.0167 32.9649 26.1181C32.8317 26.4481 32.7137 26.7931 32.6199 27.1564C32.6047 27.2139 32.5987 27.2759 32.585 27.335C32.5124 27.6437 32.4534 27.9631 32.4155 28.296C32.4004 28.4292 32.3974 28.5685 32.3883 28.7062C32.3762 28.8848 32.3535 29.0543 32.3535 29.2404C32.3474 29.2329 32.3414 29.2253 32.3353 29.2177C32.3141 29.1905 32.2929 29.1663 32.2733 29.139C32.0099 28.7924 31.7466 28.4731 31.4817 28.1704C31.3985 28.0751 31.3137 27.9827 31.229 27.8919C31.0065 27.6513 30.784 27.4258 30.56 27.2139C30.4874 27.1458 30.4147 27.0716 30.3406 27.005C30.0575 26.7523 29.773 26.5207 29.487 26.3149C29.4068 26.2574 29.325 26.209 29.2448 26.1545C29.0299 26.0107 28.815 25.8775 28.597 25.7594C28.4911 25.7019 28.3867 25.6459 28.2792 25.5945C28.0537 25.484 27.8267 25.3902 27.5982 25.3084C27.5225 25.2812 27.4468 25.2449 27.3711 25.2207C27.1229 25.142 26.8732 25.0784 26.622 25.0315C26.5932 25.0254 26.5645 25.0284 26.5357 25.0239C26.4842 25.0148 26.4343 24.9951 26.3828 24.9876C26.2073 24.9618 26.0408 24.9724 25.8683 24.9603C25.7472 24.9528 25.6276 24.927 25.5065 24.927C25.4702 24.927 25.4324 24.9361 25.3945 24.9361C25.16 24.9391 24.9329 24.9664 24.7044 24.9951C24.5909 25.0103 24.4774 25.0194 24.3639 25.0406C24.0657 25.095 23.7766 25.1707 23.4906 25.2615C23.4467 25.2751 23.4043 25.2857 23.3604 25.3009C22.6067 25.5566 21.8924 25.9184 21.2234 26.3558C21.0857 26.0152 21.013 25.649 21.013 25.2721C21.0146 24.3867 21.4081 23.5558 22.0937 22.9928ZM12.3696 35.5592C13.0098 34.3529 14.5641 33.4328 17.2627 32.6609C18.5249 32.3007 19.6963 31.6272 20.6468 30.7191C21.0781 30.3059 21.4822 29.9563 21.8727 29.6385C23.0926 28.6472 24.1444 28.1084 25.0964 27.9858C25.1176 27.9827 25.1388 27.9797 25.16 27.9782C25.4611 27.9449 25.7532 27.954 26.0363 28.0039C26.1104 28.0175 26.1861 28.0433 26.2618 28.063C26.4025 28.0978 26.5418 28.1326 26.6825 28.1886C26.7733 28.2234 26.8641 28.2764 26.9564 28.3187C27.0881 28.3823 27.2183 28.4398 27.3499 28.52C27.4529 28.5821 27.5558 28.6623 27.6587 28.7334C27.7813 28.8197 27.9039 28.8984 28.028 28.9983C28.143 29.0906 28.258 29.2026 28.3731 29.307C28.4881 29.4115 28.6031 29.5068 28.7181 29.6233C28.8453 29.752 28.9739 29.9018 29.1025 30.0456C29.207 30.1621 29.3114 30.2696 29.4174 30.3952C29.5611 30.5677 29.7064 30.7645 29.8517 30.9552C29.944 31.0763 30.0348 31.1852 30.1272 31.3139C30.2921 31.5439 30.4586 31.7997 30.6251 32.054C30.6977 32.166 30.7719 32.2659 30.8446 32.3809C31.0852 32.7608 31.3274 33.1649 31.571 33.5947C32.6849 35.5607 33.0542 38.465 32.5699 40.9941C32.4897 40.9865 32.411 40.9744 32.3308 40.9623C31.7541 40.8639 31.1987 40.6792 30.6932 40.3766L29.6141 39.7288C28.3731 38.9842 26.9822 38.6118 25.5913 38.6118C25.5746 38.6118 25.558 38.6149 25.5398 38.6149C24.1323 38.6058 22.7218 38.9736 21.4656 39.7288L20.9404 40.0436C20.0247 40.593 18.9986 40.8699 17.9725 40.879C16.9448 40.8699 15.9202 40.5945 15.0046 40.0436L12.9689 38.8207C12.9689 38.8207 12.9674 38.8207 12.9674 38.8192C12.6995 38.6603 12.4105 38.5513 12.1138 38.4968C11.8762 37.2997 11.961 36.331 12.3696 35.5592ZM68.2182 77.6609C68.0654 80.6394 65.609 82.9732 62.6275 82.9732H20.1413C17.1582 82.9732 14.7034 80.6394 14.549 77.6322L12.0306 41.8507L13.3473 42.6407C14.7745 43.4973 16.3773 43.9181 17.9755 43.909C19.5752 43.9181 21.1765 43.4973 22.6037 42.6407L23.1289 42.3259C23.8735 41.8779 24.7074 41.657 25.5429 41.6479C26.3783 41.657 27.2122 41.8779 27.9584 42.3259L29.0375 42.9737C30.4026 43.7925 31.9494 44.1436 33.478 44.0603C33.6142 44.0543 33.7504 44.0543 33.8881 44.0422C33.9048 44.0407 33.9199 44.0316 33.9381 44.0301C34.9718 43.9135 35.9858 43.5881 36.9211 43.0554C37.0089 43.0236 37.1028 43.0221 37.1845 42.9737L38.2636 42.3259C39.0082 41.8779 39.8421 41.657 40.6776 41.6479C41.513 41.657 42.3469 41.8779 43.0931 42.3259L44.1722 42.9737C45.3179 43.6593 46.5922 44.0149 47.8741 44.0679C47.8999 44.0694 47.9271 44.0725 47.9528 44.0725C48.3948 44.0861 48.8367 44.0725 49.2756 44.0104C49.5268 43.9786 49.7705 43.9151 50.0172 43.8591C50.1368 43.8303 50.2563 43.8046 50.3744 43.7698C51.0464 43.5836 51.7047 43.3399 52.3177 42.9722L53.3968 42.3244C54.1414 41.8764 54.9753 41.6554 55.8108 41.6464C56.6462 41.6554 57.4801 41.8764 58.2263 42.3244L59.3054 42.9722C60.5555 43.7213 61.9585 44.0891 63.36 44.083C63.3827 44.083 63.4069 44.0876 63.4296 44.0876C64.7887 44.0876 66.1493 43.7334 67.3692 43.0221L70.3386 41.7024C70.4022 41.6736 70.4476 41.6191 70.5066 41.5828L70.7381 41.4799L68.2182 77.6609Z" fill="#EC4E20"/>
<path d="M18.027 65.0853H28.6213C29.4567 65.0853 30.1347 64.4088 30.1347 63.5718C30.1347 62.7349 29.4567 62.0583 28.6213 62.0583H18.027C17.1915 62.0583 16.5135 62.7349 16.5135 63.5718C16.5135 64.4088 17.1915 65.0853 18.027 65.0853Z" fill="#EC4E20"/>
<path d="M18.027 71.1393H31.6482C32.4836 71.1393 33.1617 70.4627 33.1617 69.6258C33.1617 68.7888 32.4836 68.1123 31.6482 68.1123H18.027C17.1915 68.1123 16.5135 68.7888 16.5135 69.6258C16.5135 70.4627 17.1915 71.1393 18.027 71.1393Z" fill="#EC4E20"/>
<path d="M34.6751 74.1663H18.027C17.1915 74.1663 16.5135 74.8428 16.5135 75.6797C16.5135 76.5167 17.1915 77.1932 18.027 77.1932H34.6751C35.5106 77.1932 36.1886 76.5167 36.1886 75.6797C36.1886 74.8428 35.5106 74.1663 34.6751 74.1663Z" fill="#EC4E20"/>
<path d="M43.756 74.1663H40.729C39.8936 74.1663 39.2156 74.8428 39.2156 75.6797C39.2156 76.5167 39.8936 77.1932 40.729 77.1932H43.756C44.5914 77.1932 45.2695 76.5167 45.2695 75.6797C45.2695 74.8428 44.5914 74.1663 43.756 74.1663Z" fill="#EC4E20"/>
</g>
<defs>
<clipPath id="clip0">
<rect width="86" height="86" fill="white"/>
</clipPath>
</defs>
</svg>
