<svg width="63" height="86" viewBox="0 0 63 86" fill="none" xmlns="http://www.w3.org/2000/svg">
<g clip-path="url(#clip0)">
<path d="M43.6043 33.0437C43.8442 33.3989 43.8412 34.0288 43.6654 34.2956C43.5935 34.4128 43.5343 34.5374 43.489 34.6673C43.3925 34.9158 43.2906 35.1636 43.2192 35.4193C43.1441 35.6673 43.0946 35.9224 43.0715 36.1805C43.0233 36.8834 42.8829 37.595 43.1252 38.2862C43.3248 38.8567 43.6477 39.3179 44.2391 39.5743C45.2865 40.027 46.387 39.9896 47.4777 39.9423C48.4061 39.9043 49.3278 39.7258 50.2555 39.6565C51.6032 39.5547 52.9412 39.3142 54.3023 39.4075C54.5495 39.424 54.7936 39.489 55.0408 39.516C55.5017 39.5669 55.9704 39.5712 56.4245 39.6571C57.2052 39.8049 58.003 39.9552 58.697 40.3502C59.2762 40.6796 59.9061 40.9716 60.3083 41.5567C60.3852 41.669 60.5122 41.7469 60.5922 41.8579C60.9102 42.2977 61.2514 42.7264 61.5211 43.1956C61.7232 43.5471 61.8312 43.9531 61.9765 44.3371C62.1639 44.8278 62.3519 45.3234 62.5289 45.8202C62.6754 46.2324 62.8109 46.6483 62.9409 47.066C62.9785 47.1901 62.9979 47.319 62.9982 47.4487C63.0013 49.206 63.0098 50.9627 62.9909 52.7194C62.9879 53.0181 62.8609 53.3156 62.795 53.6143C62.7498 53.8186 62.7303 54.0302 62.6662 54.2277C62.4727 54.8233 62.2585 55.4121 62.0631 56.0065C62.0021 56.185 62.0021 56.3843 61.9368 56.5585C61.7757 56.9725 61.5834 57.3737 61.418 57.7853C61.2471 58.2103 61.1128 58.6519 60.926 59.069C60.4939 60.0296 60.0593 60.9907 59.5832 61.931C59.2402 62.6119 58.8142 63.2492 58.4589 63.9245C57.959 64.8789 57.3541 65.7566 56.7029 66.6012C56.1255 67.3477 55.5291 68.0794 54.9328 68.8094C54.544 69.2847 54.1497 69.757 53.7383 70.2127C53.3269 70.6685 52.8954 71.0831 52.4822 71.5266C52.1477 71.886 51.8407 72.2731 51.4983 72.6251C51.0777 73.0576 50.6309 73.4642 50.1994 73.8868C49.7892 74.2892 49.3949 74.7094 48.9744 75.1001C48.6082 75.4436 48.2023 75.7503 47.8263 76.0864C47.4906 76.3863 47.1805 76.7145 46.8424 77.0113C46.5982 77.226 46.3217 77.4021 46.0702 77.6088C45.657 77.9492 45.2627 78.3129 44.8409 78.6423C44.4412 78.9539 44.0139 79.2299 43.6031 79.528C43.3449 79.7151 43.102 79.923 42.8395 80.1033C42.5405 80.3082 42.2243 80.4879 41.9203 80.686C41.7 80.8302 41.4815 80.9798 41.2715 81.1387C40.2497 81.9097 39.1969 82.6243 38.0408 83.1763C37.5653 83.4033 37.0831 83.6161 36.6101 83.8473C36.2286 84.0314 35.86 84.2467 35.4766 84.4307C35.346 84.492 35.1837 84.4865 35.0457 84.5392C34.5416 84.7306 34.0484 84.9533 33.5381 85.1256C33.2402 85.2262 32.9149 85.2422 32.6073 85.3164C32.4559 85.3526 32.318 85.439 32.1703 85.4949C32.0331 85.5515 31.8896 85.5915 31.743 85.6139C31.2334 85.6648 30.7097 85.6415 30.2171 85.7513C28.5081 86.1309 26.7746 85.9537 25.0521 85.9702C24.5028 85.9751 23.9504 85.7973 23.3993 85.7071C23.182 85.6715 22.9622 85.6531 22.7449 85.6175C22.5698 85.5881 22.3732 85.585 22.2286 85.4992C21.7921 85.2397 21.2263 85.309 20.8387 84.922C20.7722 84.8551 20.5946 84.9171 20.4896 84.8692C20.3028 84.784 20.1466 84.6165 19.9549 84.5625C19.3757 84.3939 18.885 84.0602 18.368 83.7652C17.8693 83.4824 17.3432 83.242 16.8665 82.9261C16.1627 82.4599 15.4736 81.9661 14.8126 81.4399C14.2803 81.016 13.7957 80.5315 13.2976 80.0647C12.8136 79.6108 12.321 79.1637 11.8669 78.6785C11.3402 78.1142 10.847 77.5168 10.3514 76.923C9.89359 76.3753 9.42849 75.8306 9.00855 75.254C8.59838 74.6916 8.24071 74.0886 7.85923 73.5059C7.72983 73.3072 7.57907 73.1207 7.4692 72.9122C7.20125 72.4031 6.95588 71.8817 6.6922 71.3702C6.539 71.0727 6.36077 70.7875 6.2039 70.49C6.01347 70.122 5.83768 69.7503 5.65091 69.3822C5.37197 68.8339 5.08693 68.2892 4.80677 67.7415C4.64807 67.4311 4.48998 67.1214 4.33983 66.8073C4.10789 66.3228 3.88063 65.8361 3.65805 65.3475C3.60983 65.2414 3.60189 65.1163 3.55673 65.0077C3.36629 64.5501 3.16182 64.0981 2.97566 63.6386C2.69489 62.9449 2.40862 62.253 2.15654 61.5489C1.99357 61.0944 1.89591 60.616 1.75125 60.1541C1.62918 59.7664 1.46743 59.3911 1.34963 59.0022C1.22756 58.6029 1.14088 58.1944 1.03712 57.7902C1.02801 57.7612 1.01374 57.7342 0.995004 57.7104C0.697144 57.2903 0.803349 56.7352 0.591551 56.3205C0.282093 55.7151 0.469474 55.0325 0.145978 54.4344C-0.00112169 54.1639 0.0153613 53.7873 0.0116991 53.4585C-0.00294982 52.2839 -0.0157691 51.1087 0.0178013 49.9347C0.0293983 49.533 0.139875 49.1208 0.273547 48.7387C0.550655 47.9689 0.819216 47.1801 1.18788 46.4477C1.5071 45.8141 2.05277 45.3437 2.62652 44.9143C3.36995 44.3574 4.10789 43.7882 4.80615 43.176C5.1443 42.8798 5.40737 42.4878 5.66739 42.113C5.90726 41.7665 5.71011 41.3512 5.33596 41.1691C5.06312 41.036 4.82386 40.8176 4.59985 40.6048C4.11753 40.1417 3.72619 39.5915 3.44625 38.983C3.19295 38.4469 2.83588 37.9599 2.57586 37.4263C2.37993 37.0257 2.27678 36.5804 2.1071 36.1658C1.89225 35.642 1.85929 35.0617 1.68472 34.5496C1.3893 33.6792 1.46316 32.7953 1.34108 31.9231C1.21901 31.0509 1.33376 30.183 1.49429 29.3372C1.60782 28.7385 1.87028 28.154 2.14799 27.605C2.34331 27.218 2.6723 26.8984 2.94941 26.5549C3.11909 26.3433 3.29366 26.1341 3.48226 25.9415C3.80169 25.612 4.12844 25.2903 4.46252 24.9767C4.66106 24.7928 4.87105 24.6217 5.0912 24.4645C5.4678 24.194 5.84867 23.9291 6.23992 23.68C6.73493 23.3654 7.21651 23.017 7.75058 22.7802C8.29381 22.5349 8.80713 22.2061 9.44314 22.1669C9.81729 22.1448 10.1792 21.8694 10.5503 21.8602C11.4891 21.8399 12.3644 21.4081 13.3196 21.4958C13.7981 21.54 14.2895 21.4345 14.7723 21.4541C15.5243 21.4866 16.2799 21.5283 17.0221 21.6443C17.5824 21.732 18.1208 21.9467 18.675 22.0951C19.6552 22.3588 20.5262 22.8686 21.3844 23.3795C22.0613 23.7819 22.6747 24.2965 23.2955 24.7902C23.7863 25.1689 24.2525 25.5787 24.6914 26.017C24.9819 26.3157 25.2023 26.6917 25.4196 27.0511C25.6176 27.3724 25.7852 27.7117 25.9201 28.0644C26.1099 28.576 26.2521 29.1071 26.4151 29.6285C26.445 29.723 26.456 29.8346 26.5134 29.9082C26.7844 30.2548 26.7282 30.6706 26.7783 31.0644C26.8167 31.3631 26.8765 31.6618 26.8802 31.9612C26.8792 32.3028 26.8554 32.644 26.8088 32.9824C26.7001 33.8736 26.2906 34.6741 26.0385 35.5218C25.9618 35.78 25.9047 36.0437 25.8676 36.3106C25.8175 36.6786 26.008 36.9589 26.224 37.2306C26.2971 37.3358 26.3605 37.4475 26.4133 37.5643C26.492 37.7121 26.5732 37.8599 26.6434 38.012C26.6965 38.1286 26.7654 38.25 26.7734 38.3727C26.8344 39.3731 26.8851 40.3772 26.7062 41.3696C26.651 41.6448 26.5275 41.9016 26.3473 42.1161C26.0019 42.5246 25.6399 42.9092 25.14 43.1711C24.5907 43.4588 24.0792 43.8115 23.4627 43.9611C23.3718 43.9832 23.2552 44.1402 23.2534 44.2371C23.2534 44.3794 23.3016 44.6052 23.398 44.653C23.9083 44.891 24.4357 45.0873 24.9642 45.2909C25.3244 45.4295 25.6833 45.5755 26.0525 45.6841C26.8796 45.9264 27.7274 46.0472 28.5874 45.9589C29.141 45.9018 29.6861 45.781 30.2397 45.6927C30.5845 45.6368 30.9392 45.6215 31.2736 45.5301C31.8653 45.3771 32.448 45.1905 33.0187 44.9713C33.5596 44.7473 34.0865 44.4904 34.5965 44.2022C35.0057 43.9732 35.4002 43.7186 35.7776 43.4398C36.3751 43.0043 36.9678 42.5553 37.5366 42.0867C37.8418 41.8352 38.1086 41.5346 38.3912 41.2482C38.7574 40.8802 39.1315 40.5121 39.4813 40.1282C39.8536 39.7184 40.2137 39.2977 40.5555 38.861C40.8242 38.5133 41.0713 38.1493 41.2953 37.771C41.5395 37.3557 41.7543 36.919 41.9795 36.4909C42.1626 36.1437 42.3598 35.8021 42.5197 35.4439C42.7181 35.0022 42.8719 34.5404 43.069 34.0981C43.218 33.7553 43.4066 33.4283 43.6043 33.0437ZM10.1866 57.4927C9.83683 57.0762 9.46816 56.6726 9.13917 56.2396C8.5581 55.4747 7.98374 54.7061 7.44173 53.9088C7.18172 53.5334 6.98701 53.1089 6.79901 52.6918C6.64459 52.3483 6.54144 51.9822 6.4212 51.6246C6.40227 51.5681 6.4212 51.5019 6.40594 51.4406C6.36118 51.2361 6.31316 51.0316 6.26189 50.8272C6.21123 50.6248 6.13981 50.426 6.10441 50.2212C6.03666 49.8341 5.99882 49.4416 5.9268 49.0558C5.7211 47.9572 5.56057 46.8611 5.95426 45.7675C5.98112 45.6939 5.97013 45.6068 5.98112 45.5258C6.08305 44.7659 6.28996 44.0384 6.71356 43.3931C6.83564 43.2048 7.05171 43.0754 7.1689 42.8847C7.23604 42.7749 7.24947 42.5626 7.1866 42.4553C7.08161 42.2768 6.90583 42.1345 6.74286 41.9977C6.52801 41.8174 6.25456 41.9278 6.16362 42.1658C6.04154 42.4792 5.90787 42.7994 5.71072 43.0656C5.3384 43.5704 4.90565 44.0292 4.52111 44.5248C4.19518 44.9456 3.90098 45.3909 3.59518 45.827C3.21431 46.3741 2.73151 46.8575 2.55267 47.5328C2.53069 47.615 2.44647 47.6794 2.41045 47.7603C2.25786 48.1057 2.09367 48.4479 1.9716 48.8031C1.9014 49.0092 1.92643 49.2465 1.86783 49.4581C1.65164 50.2568 1.58948 51.0895 1.68472 51.9116C1.79886 52.9636 1.92887 54.0259 2.25054 55.0453C2.47576 55.7617 2.71686 56.4733 2.94636 57.1884C3.0135 57.3964 3.04951 57.6178 3.12947 57.8196C3.30342 58.276 3.49569 58.7243 3.6788 59.1782C3.73984 59.3267 3.76914 59.4849 3.83811 59.6321C4.14329 60.2768 4.46252 60.9202 4.77564 61.5599C4.93799 61.893 5.08082 62.2346 5.26393 62.5579C5.57217 63.1099 5.89933 63.6466 6.22343 64.1876C6.47491 64.6072 6.71906 65.0316 6.99067 65.4383C7.41793 66.0805 7.87082 66.7086 8.31029 67.3446C8.58679 67.7445 8.85291 68.1524 9.1349 68.5487C9.30153 68.783 9.4883 69.0026 9.66836 69.2264C10.0956 69.7582 10.5149 70.2949 10.9501 70.8169C11.2553 71.18 11.5892 71.5174 11.9005 71.875C12.188 72.205 12.4553 72.5534 12.7446 72.8809C13.1554 73.3471 13.5753 73.8046 13.9977 74.2604C14.3932 74.6867 14.7741 75.1301 15.202 75.5221C15.8606 76.125 16.5509 76.6924 17.2321 77.2708C17.7295 77.694 18.2215 78.1258 18.7372 78.5257C19.4019 79.0404 20.0862 79.5311 20.7673 80.0236C21.0058 80.2001 21.2561 80.3599 21.5163 80.502C21.8715 80.6903 22.242 80.8492 22.6064 81.0197C23.0465 81.2264 23.478 81.4558 23.9303 81.6331C24.457 81.8398 25.0259 81.9502 25.5331 82.1937C26.0403 82.4372 26.5707 82.4164 27.0834 82.474C28.773 82.6635 30.3794 82.2661 31.92 81.5797C32.6146 81.273 33.2915 80.9197 33.9611 80.5578C34.5049 80.2647 35.028 79.9316 35.5548 79.6077C35.9094 79.3894 36.2536 79.1551 36.604 78.9293C36.8481 78.7748 37.0923 78.6331 37.3285 78.4675C37.9871 78.0013 38.639 77.5272 39.2927 77.0567C39.7273 76.7359 40.171 76.4292 40.597 76.0993C41.1574 75.6644 41.7043 75.2117 42.2542 74.7627C42.6241 74.4609 42.997 74.1616 43.3529 73.8427C43.7301 73.5065 44.0902 73.1514 44.4558 72.803C44.5779 72.6865 44.6877 72.5577 44.8129 72.4448C45.1565 72.1381 45.5136 71.8431 45.8505 71.5247C46.1288 71.2622 46.3809 70.9727 46.6489 70.6979C47.2763 70.0563 47.9367 69.4442 48.5282 68.7701C49.2423 67.9574 49.896 67.0913 50.5809 66.2522C50.8403 65.9345 51.1302 65.6388 51.3743 65.315C51.8059 64.7482 52.2167 64.1655 52.6342 63.5883C53.0645 62.9934 53.5009 62.4021 53.9196 61.7991C54.2657 61.3005 54.591 60.7877 54.9243 60.2792C55.0756 60.0474 55.2294 59.8149 55.3643 59.5751C55.5578 59.2377 55.7379 58.893 55.924 58.552C56.0864 58.2551 56.2628 57.9644 56.4123 57.6595C56.6125 57.2449 56.7682 56.8069 56.9849 56.4009C57.3796 55.6736 57.6879 54.9022 57.9035 54.1026C57.9517 53.9186 57.9425 53.7149 58.0121 53.5414C58.2361 52.9893 58.2807 52.4054 58.3002 51.8202C58.3161 51.3479 58.3222 50.8744 58.3161 50.4021C58.3106 49.9114 58.3277 49.4097 58.2593 48.9239C58.1486 48.1718 57.8865 47.4504 57.489 46.8035C57.3712 46.6084 57.2449 46.4048 57.0752 46.2594C56.6406 45.8871 56.1932 45.5234 55.7257 45.1952C55.0158 44.6959 54.3414 44.131 53.3758 44.1752C52.5963 44.2101 51.812 44.1335 51.0295 44.1359C49.8088 44.1402 48.5911 44.2101 47.374 44.1752C46.5805 44.1519 45.7943 43.9961 45.0057 43.8924C43.9858 43.7587 43.1289 43.2944 42.4239 42.5516C41.902 41.9996 41.6585 41.3334 41.6548 40.5759C41.6548 40.1877 41.6627 39.7994 41.6505 39.4105C41.6505 39.3283 41.5724 39.248 41.5285 39.1652C41.4571 39.2136 41.3588 39.2455 41.3203 39.313C41.1317 39.6424 40.9504 39.9767 40.7881 40.3195C40.768 40.369 40.7579 40.422 40.7586 40.4754C40.7592 40.5288 40.7705 40.5816 40.7917 40.6305C40.981 41.0047 41.1964 41.3666 41.3954 41.7346C41.8684 42.6129 41.8227 43.5097 41.4864 44.4181C41.4253 44.5776 41.4009 44.7487 41.3533 44.9125C41.2959 45.1118 41.2538 45.3204 41.1647 45.505C41.0225 45.7988 40.84 46.0723 40.688 46.3637C40.5232 46.6771 40.3993 47.0145 40.2137 47.3144C39.9006 47.8247 39.5655 48.3265 39.2127 48.8123C38.6634 49.5728 37.9615 50.1899 37.2235 50.7609C36.7682 51.113 36.2994 51.4479 35.8331 51.7853C35.748 51.835 35.659 51.8777 35.567 51.9129C35.4626 51.9638 35.3564 52.0122 35.2557 52.0699C34.9206 52.2625 34.5977 52.4759 34.2516 52.644C33.8592 52.8341 33.4484 52.9844 33.0443 53.15C32.5444 53.3549 32.05 53.5757 31.5404 53.753C31.27 53.8468 30.9245 53.7861 30.6987 53.9308C30.3843 54.1314 30.0663 54.1523 29.7288 54.1872C29.1892 54.2418 28.6399 54.2614 28.115 54.3829C27.1994 54.5951 26.2839 54.4688 25.3738 54.4123C24.6938 54.37 24.0182 54.2639 23.3413 54.1774C23.2056 54.1505 23.0724 54.1119 22.9433 54.0621C22.6894 53.9811 22.4367 53.8965 22.1828 53.8168C22.0406 53.7714 21.8678 53.7665 21.761 53.6787C21.5211 53.4819 21.2501 53.472 20.9675 53.4414C20.7221 53.4069 20.48 53.3519 20.2436 53.277C19.9806 53.2022 19.7291 53.0783 19.463 53.0273C19.1969 52.9764 18.9808 52.9151 18.957 52.6133C19.5448 52.4845 20.1167 52.4906 20.6831 52.7072C20.851 52.7685 21.0194 52.8611 21.1934 52.8765C21.6566 52.9188 22.123 52.9243 22.5875 52.9519C22.726 52.9599 22.8853 52.955 22.9976 53.0206C23.4041 53.2586 23.8442 53.2709 24.2886 53.2525C25.0851 53.2193 25.8816 53.1862 26.6757 53.1261C27.1134 53.0936 27.5467 53.0034 27.9819 52.9421C28.2114 52.9096 28.4446 52.8985 28.6692 52.847C29.0653 52.7556 29.4547 52.6342 29.8503 52.5403C30.0907 52.479 30.3386 52.463 30.5796 52.398C30.8207 52.333 31.0405 52.2324 31.2724 52.1527C31.3664 52.1208 31.4708 52.1153 31.5605 52.0748C32.0321 51.8617 32.5009 51.645 32.9668 51.4246C33.3532 51.2406 33.7676 51.0977 34.1143 50.856C34.7308 50.4279 35.3808 50.0543 35.9588 49.5581C36.5723 49.0325 37.2571 48.5823 37.7863 47.9689C38.1573 47.5425 38.4885 47.0828 38.7757 46.5955C39.0949 46.0435 39.3073 45.4301 39.6156 44.8671C39.8744 44.3954 39.8689 43.8992 39.806 43.4146C39.7413 42.9141 39.2982 42.6872 38.9637 42.9024C38.6866 43.0809 38.4449 43.3177 38.1989 43.5422C37.6294 44.0636 37.1686 44.699 36.4795 45.0989C36.0809 45.3314 35.7324 45.6546 35.3472 45.9178C35.1275 46.0674 34.8791 46.1754 34.6484 46.3091C34.2907 46.514 33.9471 46.7421 33.5802 46.9292C33.2 47.1206 32.8026 47.2782 32.4065 47.4346C31.9182 47.6285 31.4177 47.8027 30.9221 47.9867C30.9121 47.9879 30.9021 47.9879 30.8922 47.9867C30.3801 48.029 29.8686 48.1044 29.3565 48.1093C28.4141 48.1093 27.471 48.0744 26.5286 48.048C26.4192 48.0392 26.3113 48.0163 26.2076 47.9799C25.8377 47.8689 25.4647 47.7646 25.1016 47.634C24.8825 47.5536 24.6786 47.4168 24.4595 47.3273C24.0823 47.1733 23.6983 47.0372 23.3181 46.8912C23.2823 46.8732 23.2478 46.8527 23.2149 46.8299C22.8182 46.6066 22.4214 46.3858 22.0241 46.1588C21.7476 46.0006 21.4748 45.838 21.2025 45.6681C20.738 45.378 20.3669 44.9523 19.7511 44.8934C19.3958 44.8597 19.0601 44.6131 18.7171 44.4592C18.5419 44.3807 18.5694 44.2525 18.7073 44.1979C18.935 44.1077 19.1859 44.0022 19.419 44.0182C19.781 44.0433 20.1002 44.0041 20.42 43.8268C20.6031 43.7244 20.8284 43.6919 21.0353 43.6299C21.1033 43.6193 21.1701 43.6023 21.2349 43.579C21.6011 43.3846 21.9429 43.1441 22.3232 42.9951C22.8762 42.7785 23.2937 42.3891 23.727 42.0137C24.2312 41.5733 24.4595 40.9752 24.4997 40.33C24.5368 39.6691 24.5262 39.0063 24.468 38.3469C24.4351 37.955 24.28 37.5729 24.1775 37.1871C24.0932 36.8693 23.9785 36.5565 23.9291 36.2333C23.8894 35.9744 23.8259 35.6297 23.9522 35.4525C24.1964 35.1096 24.1885 34.744 24.2074 34.3852C24.2428 33.7227 24.2043 33.0572 24.2226 32.3936C24.2412 31.7496 24.1398 31.1078 23.9236 30.5013C23.6507 29.7309 23.2955 29.0096 22.6418 28.4723C22.115 28.0429 21.6298 27.559 21.1012 27.1302C20.8326 26.9119 20.4847 26.7929 20.2168 26.5739C19.9116 26.3286 19.5258 26.2617 19.2249 26.0538C18.971 25.8784 18.722 25.833 18.4449 25.8023C18.3265 25.7894 18.1958 25.7949 18.0933 25.7453C17.5806 25.4968 17.0343 25.4429 16.4783 25.4386C15.8069 25.4331 15.1354 25.4214 14.464 25.4386C14.0212 25.4552 13.5796 25.4945 13.1408 25.5563C12.6476 25.622 12.1703 25.7704 11.6759 25.8477C11.2095 25.9207 10.7493 26.1722 10.2787 26.3292C9.88382 26.4604 9.51821 26.6972 9.15871 26.9174C8.64477 27.2333 8.1168 27.5406 7.65353 27.9227C7.32271 28.1963 7.08711 28.5864 6.80939 28.9256C6.31011 29.5353 5.9329 30.2045 5.78275 30.9926C5.71011 31.3754 5.52822 31.7489 5.51846 32.1298C5.49282 33.1112 5.42568 34.0926 5.73453 35.0581C5.93778 35.6941 6.03971 36.3639 6.18986 37.0178C6.20757 37.0926 6.26738 37.1582 6.30583 37.2288C6.38722 37.3784 6.46738 37.5281 6.54632 37.6778C6.70196 37.9697 6.83381 38.2782 7.01814 38.55C7.45699 39.1971 7.96055 39.8031 8.36522 40.4704C8.85962 41.2844 9.56948 41.8947 10.189 42.5902C10.4332 42.8644 10.4618 43.0883 10.1988 43.3576C10.1332 43.4194 10.0625 43.4756 9.98759 43.5256C9.55545 43.8372 9.27468 44.2764 9.05494 44.7432C8.85108 45.1725 8.7113 45.6381 8.55078 46.0926C8.36461 46.6158 8.11924 47.1298 8.02036 47.6696C7.84694 48.6045 7.79259 49.5577 7.85862 50.5064C7.9105 51.2878 8.06315 52.0591 8.31273 52.801C8.7022 53.9231 9.21611 54.9975 9.84476 56.004C10.0316 56.3035 10.1978 56.6154 10.3422 56.9376C10.4216 57.1167 10.4502 57.3332 10.1866 57.4927Z" fill="#E31EB8"/>
<path d="M14.0832 19.9019C14.0221 19.8013 13.958 19.7038 13.9049 19.5995C13.5283 18.8536 13.4917 18.0194 13.3123 17.2239C13.1768 16.6684 13.0998 16.1002 13.0828 15.5286C13.0838 14.7989 13.1326 14.0701 13.2286 13.3468C13.2977 12.8129 13.4065 12.285 13.554 11.7674C13.6901 11.2705 13.8878 10.7915 14.0557 10.3039C14.1167 10.1346 14.1515 9.9567 14.2205 9.79232C14.4079 9.3421 14.5812 8.88392 14.8077 8.45394C15.072 7.95221 15.3814 7.47255 15.6817 6.9929C15.781 6.83662 15.8968 6.69162 16.0272 6.56047C16.3366 6.24765 16.6577 5.9471 16.9739 5.64042C17.5733 5.06201 18.1409 4.44557 18.7806 3.91746C19.3708 3.43106 20.0269 3.02255 20.6727 2.61221C21.2078 2.26709 21.763 1.95453 22.3354 1.67621C22.8707 1.42288 23.4401 1.24194 23.9974 1.03768C24.5242 0.845086 25.054 0.661692 25.5844 0.480747C25.7332 0.42756 25.887 0.389542 26.0434 0.367272C26.4401 0.316975 26.8405 0.294283 27.2354 0.235399C27.4661 0.201051 27.6877 0.0796009 27.9178 0.0642667C28.5331 0.0219442 29.1508 0.00292969 29.7672 0.00292969C30.4038 0.00292969 31.0417 0.018265 31.6759 0.0691747C32.0067 0.096163 32.329 0.216997 32.6567 0.291214C32.7928 0.322496 32.9326 0.367887 33.0687 0.361753C33.5008 0.337257 33.9322 0.421592 34.3236 0.607101C34.5928 0.733456 34.9529 0.668435 35.2184 0.799083C35.7269 1.04872 36.3202 1.02358 36.7993 1.3732C37.1277 1.61303 37.5452 1.7265 37.8894 1.94854C38.3167 2.22394 38.7116 2.55148 39.1175 2.86062C39.5722 3.20718 40.0153 3.56968 40.4798 3.90335C40.7759 4.11496 41.0847 4.33271 41.4204 4.45538C41.6849 4.55132 41.9719 4.56542 42.2444 4.49587C42.5288 4.41551 42.7699 4.18918 43.0379 4.03768C43.1835 3.95898 43.3367 3.89528 43.4951 3.84753C44.0487 3.67395 44.6047 3.75185 45.1638 3.82913C45.433 3.86655 45.7131 3.82545 45.9817 3.86532C46.2307 3.90151 46.47 4.00149 46.7142 4.06712C46.9253 4.12416 47.1414 4.21249 47.352 4.21678C47.7908 4.22537 48.2065 4.26094 48.5941 4.50752C48.704 4.57744 48.8657 4.56395 49.0024 4.59401C49.1386 4.61648 49.2726 4.65075 49.4028 4.69644C49.6281 4.79028 49.8441 4.90621 50.0651 5.0111C50.3849 5.1626 50.7243 5.28221 51.0221 5.46928C51.5104 5.77597 51.9987 6.09186 52.4339 6.46785C52.9357 6.90334 53.4288 7.36828 53.8323 7.89332C54.3119 8.51293 54.7306 9.17788 55.0823 9.8788C55.252 10.2186 55.534 10.5369 55.5206 10.9761C55.5151 11.1479 55.6805 11.319 55.7293 11.5006C55.827 11.8649 55.9002 12.2366 55.9784 12.6046C56.1401 13.3677 56.2835 14.1429 56.2152 14.9182C56.1462 15.7058 56.0723 16.4915 55.7061 17.2448C55.227 18.2262 54.6844 19.1395 53.9361 19.9326C53.4722 20.4232 53.0614 20.9642 52.5932 21.4482C52.1855 21.869 51.7387 22.2499 51.132 22.3774C51.0527 22.394 50.9288 22.5412 50.9416 22.6032C51.0722 23.2165 50.8317 23.7624 50.6327 24.3096C50.4338 24.8567 50.1859 25.3934 49.9754 25.9405C49.6946 26.6729 49.1904 27.2685 48.79 27.9266C48.5373 28.3419 48.2126 28.7129 47.9178 29.1018C47.7475 29.3263 47.5723 29.5471 47.3972 29.7679C47.096 30.1474 46.7937 30.5263 46.4901 30.9045C46.3758 31.058 46.2505 31.2029 46.1154 31.3382C46.0604 31.3891 45.9469 31.3774 45.8602 31.394C45.8657 31.3149 45.8432 31.2179 45.8804 31.1584C46.0781 30.8407 46.2967 30.5365 46.4963 30.2206C46.6122 30.0366 46.7068 29.8409 46.8112 29.6508C47.0651 29.1889 47.3886 28.7504 47.554 28.2584C47.7371 27.7174 48.0826 27.2083 48.0063 26.5931C47.9975 26.5426 48.0025 26.4907 48.021 26.4429C48.3261 25.8105 48.2578 25.1253 48.3152 24.4562C48.3689 23.836 48.4928 23.2214 48.5392 22.6007C48.5672 22.2204 48.5154 21.8328 48.4867 21.45C48.4665 21.1801 48.4043 20.9121 48.3976 20.6428C48.3788 19.9158 48.3733 19.1885 48.3811 18.4611C48.3811 18.3734 48.5031 18.2869 48.5599 18.2065C49.3155 18.4746 49.4895 19.1266 49.636 19.7761C49.6757 19.954 49.5487 20.1638 49.5353 20.3619C49.528 20.4613 49.5835 20.6355 49.6464 20.6539C49.7465 20.6833 49.8942 20.6385 49.9888 20.5754C50.1243 20.4842 50.241 20.3676 50.3324 20.2319C50.6687 19.7173 51.0301 19.2198 51.1912 18.6034C51.3524 17.9869 51.6185 17.3766 51.7589 16.7498C51.8559 16.3204 51.8199 15.8635 51.8461 15.4188C51.9023 14.4024 51.5507 13.4731 51.2553 12.5261C50.9947 11.6907 50.474 11.016 49.9558 10.3542C49.6189 9.9248 49.1227 9.62241 48.6997 9.26052C48.2794 8.89079 47.7863 8.61428 47.2525 8.44904C46.8448 8.32636 46.4407 8.19265 46.0318 8.08776C45.0649 7.84241 44.0786 7.99575 43.102 7.96509C42.6137 7.95098 42.3018 8.31532 42.4855 8.66065C42.6405 8.952 42.856 9.21268 43.0312 9.49115C43.1563 9.69295 43.3889 9.87696 43.2204 10.161C42.7089 10.161 42.4574 9.74693 42.0998 9.52243C41.8214 9.34701 41.573 9.12374 41.3142 8.91827C41.092 8.74223 40.8808 8.55024 40.6507 8.38586C40.3681 8.18344 40.0782 7.98962 39.7785 7.81359C39.1517 7.44556 38.5291 7.06957 37.8815 6.74325C37.4353 6.51876 36.9427 6.38811 36.4837 6.18754C35.924 5.94219 35.299 5.89496 34.7613 5.57417C34.5922 5.47419 34.3566 5.49137 34.1546 5.44352C33.9715 5.40059 33.7975 5.32698 33.6144 5.29325C33.1871 5.21289 32.7526 5.1031 32.3186 5.08715C31.4354 5.05526 30.5485 5.04667 29.6671 5.08715C29.0641 5.11598 28.4513 5.12518 27.8745 5.40059C27.6346 5.51529 27.3196 5.46192 27.0431 5.50915C26.8338 5.54718 26.6324 5.62876 26.4267 5.6901C26.221 5.75144 26.0141 5.81768 25.8047 5.87043C25.66 5.90723 25.4995 5.9011 25.3646 5.95569C24.4613 6.31512 23.5579 6.67639 22.6644 7.05975C22.3305 7.20328 22.0229 7.40937 21.7012 7.58173C21.3106 7.7915 20.9034 7.97429 20.5287 8.20921C20.1022 8.48089 19.6903 8.7749 19.2945 9.09001C18.8752 9.42062 18.4681 9.76901 18.078 10.1327C17.782 10.4088 17.5202 10.7216 17.2461 11.0215C17.063 11.2184 16.8799 11.4104 16.7157 11.622C16.3788 12.0636 16.0443 12.5083 15.7336 12.9677C15.5124 13.3017 15.3098 13.6478 15.1269 14.0043C14.8406 14.5521 14.663 15.1409 14.5281 15.7432C14.2699 16.8915 14.4787 18.0556 14.3999 19.2094C14.3841 19.4461 14.2828 19.6774 14.2211 19.9111L14.0832 19.9019Z" fill="#E31EB8"/>
<path d="M20.5032 15.1255C21.0195 15.3561 21.2204 15.7616 21.4645 16.1351C21.6116 16.3608 21.7697 16.5804 21.9339 16.7926C22.4002 17.3919 22.8684 17.9887 23.3438 18.5806C23.5965 18.8946 23.8675 19.194 24.1251 19.5037C24.2637 19.6699 24.3827 19.8527 24.5267 20.0134C24.8142 20.333 25.0883 20.6728 25.4142 20.9494C25.8146 21.2892 26.2583 21.5775 26.6899 21.8787C26.9383 22.0523 27.1971 22.2099 27.4547 22.3694C27.7566 22.5554 28.0606 22.7374 28.3666 22.9153C28.9605 23.2588 29.5513 23.609 30.1549 23.9353C30.5877 24.169 31.0424 24.3647 31.4819 24.5843C31.6951 24.6935 31.9021 24.8145 32.102 24.9468C32.6074 25.2792 33.1097 25.6168 33.609 25.9594C34.0277 26.2459 34.4635 26.5115 34.8475 26.8415C35.2448 27.1819 35.763 27.3549 36.0682 27.8327C36.1976 28.0357 36.4955 28.1271 36.7152 28.2755C37.1654 28.575 37.5839 28.9201 37.964 29.3054C38.3748 29.7292 38.5408 30.2377 38.6598 30.7683C38.9266 31.9539 38.7819 33.1604 38.7721 34.3589C38.7654 35.0864 38.589 35.812 38.4963 36.5401C38.4737 36.721 38.4914 36.9081 38.4847 37.0921C38.4657 37.5797 38.4712 38.0704 38.4071 38.5519C38.387 38.7071 38.1935 38.9365 38.0562 38.9549C37.8499 38.9819 37.8218 38.7482 37.812 38.5538C37.7559 37.2982 37.6985 36.0426 37.6289 34.7883C37.5978 34.2467 37.5819 33.7002 37.3817 33.1813C37.3402 33.0727 37.3579 32.9427 37.3268 32.8286C37.2731 32.6347 37.2346 32.4299 37.1351 32.2667C36.952 31.9656 36.7622 31.6534 36.5101 31.4123C36.258 31.1712 35.9364 30.9983 35.6281 30.8271C35.2546 30.6204 34.8646 30.4456 34.4794 30.261C34.0943 30.0764 33.7116 29.8997 33.327 29.72C33.291 29.7028 33.255 29.6875 33.219 29.6716C32.5708 29.3796 31.8963 29.1336 31.2817 28.7828C30.6335 28.4117 30.0402 27.9437 29.4274 27.5113C29.0453 27.2414 28.6632 26.9709 28.2976 26.6801C27.8935 26.3587 27.4974 26.0251 27.1177 25.6754C26.6142 25.2117 26.1051 24.7505 25.6443 24.2457C25.2427 23.8059 24.8917 23.3164 24.5457 22.8319C24.1996 22.3473 23.8688 21.8634 23.5617 21.3598C23.2547 20.8562 22.9849 20.3379 22.7072 19.8221C22.3953 19.2473 22.0791 18.6744 21.7886 18.0887C21.6012 17.7115 21.4669 17.3079 21.2893 16.9233C21.1203 16.5553 20.9152 16.2075 20.7473 15.8407C20.6484 15.637 20.5972 15.4132 20.5032 15.1255Z" fill="#E31EB8"/>
<path d="M33.2719 30.5869C33.2201 30.8464 33.2207 31.0365 33.145 31.1874C32.8111 31.8529 32.4571 32.5503 31.8406 32.9613C31.0789 33.471 30.2598 33.9862 29.2612 33.82C28.7491 33.7354 28.2559 33.5569 27.9861 33.0557C27.8586 32.819 27.9361 32.5834 28.1161 32.3927C28.306 32.1915 28.5434 32.2087 28.7424 32.3393C29.0939 32.57 29.429 32.451 29.78 32.3577C30.0577 32.2835 30.3568 32.2719 30.6211 32.1682C31.038 32.0044 31.4298 31.7762 31.8418 31.5935C32.2538 31.4107 32.5175 31.0795 32.8068 30.7605C32.888 30.6722 33.0614 30.6605 33.2719 30.5869Z" fill="#E31EB8"/>
<path d="M17.6123 63.601C17.995 63.6746 18.3704 63.5593 18.6145 63.9261C18.6597 63.9935 18.7976 63.9972 18.8886 64.0352C19.0949 64.1205 19.3012 64.2052 19.5057 64.2959C19.9116 64.4763 20.3193 64.6529 20.7197 64.8449C20.9431 64.9522 21.1525 65.0902 21.3691 65.2129C21.7653 65.4356 22.1742 65.6386 22.5557 65.8876C23.2839 66.3575 23.9956 66.8518 24.7152 67.3346C24.9593 67.499 25.2151 67.6505 25.4525 67.8253C25.7577 68.0498 26.0458 68.2933 26.343 68.5264C26.517 68.6631 26.7093 68.7282 26.8857 68.5503C27.1445 68.2908 27.3862 68.0142 27.6321 67.7425C27.9868 67.3517 28.3255 66.9451 28.6942 66.5685C29.6653 65.5754 30.6523 64.5983 31.624 63.6053C31.9066 63.3164 32.1519 62.9919 32.426 62.6938C32.6647 62.4356 32.9234 62.1957 33.1676 61.9424C33.5906 61.5032 33.994 61.0451 34.4329 60.6224C35.0091 60.0704 35.6182 59.5509 36.1981 59.0013C36.5173 58.6995 36.7993 58.3573 37.11 58.0457C37.4506 57.704 37.8058 57.3783 38.1525 57.0428C38.3802 56.8232 38.6005 56.5957 38.8288 56.3773C39.1332 56.0853 39.44 55.7962 39.7492 55.51C40.1808 55.1113 40.6221 54.7243 41.0469 54.3188C41.7287 53.6625 42.4001 52.9989 43.0818 52.345C43.5952 51.8543 44.1244 51.3808 44.6377 50.8895C44.8415 50.6944 45.01 50.4601 45.2133 50.2657C45.4165 50.0712 45.6723 50.0817 45.809 50.2963C45.8474 50.3577 45.878 50.465 45.8499 50.519C45.7083 50.7919 45.5447 51.0532 45.3915 51.3207C45.2383 51.5881 45.1168 51.8568 44.9484 52.1027C44.6499 52.5376 44.3307 52.9614 44.0133 53.3804C43.6403 53.876 43.265 54.371 42.8804 54.858C42.5557 55.2696 42.231 55.683 41.8794 56.0718C41.2568 56.7613 40.608 57.428 39.9806 58.1138C39.4819 58.6597 39.004 59.2276 38.5065 59.7729C37.89 60.446 37.2654 61.1117 36.6327 61.7701C35.9838 62.4448 35.3094 63.0919 34.6654 63.7697C34.0099 64.4603 33.3788 65.1743 32.7348 65.876C32.4052 66.2348 32.0677 66.5869 31.7387 66.9463C31.0673 67.6793 30.3825 68.4 29.7355 69.1544C29.1123 69.8807 28.5251 70.6394 27.9343 71.3926C27.775 71.5957 27.6669 71.8373 27.5211 72.0514C27.3825 72.255 27.2024 72.2685 27.1066 72.0581C26.7776 71.338 26.1343 70.9081 25.5892 70.402C24.9789 69.8328 24.2769 69.3593 23.6202 68.8373C23.1734 68.4828 22.7394 68.1129 22.2932 67.7578C22.1388 67.6351 21.9526 67.5511 21.7994 67.4266C21.2385 66.9721 20.6776 66.5163 20.1319 66.044C19.7657 65.7245 19.4312 65.3601 19.0589 65.0442C18.6603 64.7063 18.2227 64.4137 17.8247 64.0745C17.7185 63.9819 17.6947 63.7942 17.6123 63.601Z" fill="#E31EB8"/>
</g>
<defs>
<clipPath id="clip0">
<rect width="63" height="86" fill="white"/>
</clipPath>
</defs>
</svg>
