<svg width="32" height="50" viewBox="0 0 32 50" fill="none" xmlns="http://www.w3.org/2000/svg">
<g clip-path="url(#clip0)">
<path d="M23.2937 25.038C22.6343 24.3871 21.904 24.0157 21.0488 23.919C20.8718 23.9109 20.6958 23.9486 20.538 24.0284C17.6051 25.3627 14.6689 25.3735 11.7295 24.0607C11.4797 23.9616 11.2073 23.9328 10.9421 23.9776C9.59968 24.1916 8.42161 25.3458 8.16277 26.6671C8.08206 27.0766 8.14702 27.3512 8.57711 27.6141C9.70204 28.2982 10.7866 29.0536 11.8545 29.8257C12.4627 30.2645 12.5217 31.019 12.0739 31.5369C11.6645 32.008 10.9913 32.0099 10.4156 31.5369C9.2011 30.5499 7.87341 29.7088 6.46011 29.0312C4.98383 28.3265 3.58037 27.5076 2.32159 26.327C2.29994 26.5166 2.27435 26.6339 2.27435 26.7512C2.27435 29.254 2.2527 31.7578 2.27435 34.2606C2.34324 40.9062 7.33211 46.6057 13.9065 47.5801C21.3411 48.6844 28.3505 43.6866 29.4872 36.3647C29.7589 34.6125 29.6713 32.8025 29.7087 31.018C29.7412 29.4416 29.7136 27.8643 29.7175 26.2879C29.7175 25.5061 30.1368 25.0458 30.8356 25.0468C31.5344 25.0477 31.9753 25.5071 31.9763 26.286C31.9763 29.0488 32.0343 31.8135 31.9615 34.5753C31.7647 42.0418 26.268 48.3776 18.8718 49.737C10.2207 51.327 1.80194 45.5444 0.294156 36.9511C0.120453 35.9605 0.0289437 34.9573 0.0205507 33.9518C-0.008975 29.5462 0.00873805 25.1416 0.00578547 20.7359C0.00578547 20.262 0.0736958 19.8192 0.520519 19.5466C1.30787 19.0658 2.23695 19.5661 2.26746 20.4897C2.31175 21.8696 2.6385 23.1547 3.52132 24.2552C4.16881 25.0558 4.94936 25.7406 5.82925 26.2801C6.23572 24.4848 7.24058 23.1958 8.89402 22.3348C8.76509 22.1814 8.66273 22.0465 8.54857 21.9233C7.64377 20.9375 6.91904 19.8024 6.40697 18.5693C6.31494 18.3747 6.15265 18.2216 5.95227 18.1403C4.37756 17.5822 3.39337 16.2834 3.43766 14.7403C3.48293 13.2509 4.50748 11.8319 6.0438 11.4654C6.21111 11.4263 6.37252 11.183 6.45322 10.9982C7.837 7.8289 10.1784 5.76096 13.5591 4.90877C14.6555 4.63317 15.7843 4.47974 16.9053 4.75142C18.5322 5.14234 19.6178 6.74314 19.4022 8.34882C19.1562 10.1842 17.8275 11.3921 16.056 11.4009C15.3208 11.4009 14.8936 11.0266 14.8602 10.3405C14.8267 9.68184 15.248 9.22447 15.9526 9.15215C16.6809 9.07788 16.9555 8.87558 17.1002 8.3068C17.297 7.52497 16.8207 6.91025 16.0087 6.89266C12.6113 6.81936 9.42843 9.12479 8.3537 12.4388C7.99447 13.5441 7.90688 13.6115 6.76029 13.7024C6.12352 13.7522 5.70425 14.191 5.7013 14.8185C5.7013 15.4664 6.13238 15.9287 6.78391 15.9697C7.9797 16.045 7.9797 16.045 8.35862 17.2138C8.88877 18.8484 9.93174 20.2716 11.335 21.2753C12.7382 22.2791 14.4281 22.8106 16.1574 22.7922C19.5814 22.7413 22.6432 20.3577 23.6431 16.9597C23.9462 15.9335 24.0722 15.8339 25.1617 15.7528C25.8379 15.7029 26.2985 15.2162 26.2788 14.5741C26.2591 13.9321 25.7867 13.4688 25.1037 13.4542C24.1037 13.4327 23.9817 13.3418 23.6776 12.4134C23.1648 10.8497 22.342 9.49518 21.0202 8.47C20.4829 8.05368 20.4209 7.32169 20.8618 6.79591C21.2476 6.33658 21.9286 6.29358 22.4424 6.72554C23.7289 7.79148 24.7439 9.1439 25.4048 10.6728C25.5898 11.1009 25.8142 11.3569 26.2906 11.5201C26.9711 11.7677 27.5556 12.2221 27.961 12.8187C28.3663 13.4153 28.5719 14.1236 28.5483 14.8429C28.4922 16.3489 27.508 17.5773 25.9943 18.0552C25.8318 18.1043 25.6946 18.2139 25.6115 18.3611C25.059 19.737 24.2428 20.9932 23.2081 22.0602C23.188 22.082 23.1737 22.1086 23.1668 22.1374L25.1922 23.8564C26.1036 23.3639 26.9087 22.6436 27.5996 21.7973C29.2461 19.7831 29.8553 17.4728 29.6546 14.8908C29.2284 9.38768 25.3625 4.59994 20.0656 2.95517C12.1822 0.511948 3.79099 5.6173 2.47611 13.6789C2.36969 14.4184 2.30169 15.1627 2.27238 15.9091C2.22514 16.6909 1.86689 17.0819 1.14154 17.0819C0.44572 17.0819 0.00381793 16.644 0.00972308 15.8964C0.0254701 13.6105 0.478198 11.4077 1.47322 9.34859C3.88153 4.36442 7.78976 1.12471 13.2894 0.234399C22.2859 -1.22567 29.5138 4.38689 31.4851 12.0136C32.2056 14.795 32.2184 17.5686 31.1033 20.2766C30.061 22.8078 28.3229 24.7418 25.9156 26.0426C20.6285 28.9002 15.993 32.5494 12.1802 37.1837C11.077 38.5265 10.1006 39.9739 9.09578 41.3939C8.63813 42.0408 8.21001 42.205 7.58701 41.8483C7.00437 41.5141 6.82525 40.8593 7.22385 40.2504C7.85668 39.2849 8.50329 38.3261 9.20109 37.4065C12.9341 32.4761 17.5096 28.478 22.8351 25.3204C22.9729 25.2432 23.1057 25.1552 23.2937 25.038Z" fill="#EC4E20"/>
<path d="M12.5889 17.0664C11.8753 17.0733 11.4629 16.6755 11.459 15.9728C11.4551 15.2702 11.8802 14.8451 12.5682 14.846C12.7196 14.8393 12.8707 14.8643 13.0117 14.9193C13.1528 14.9742 13.2807 15.058 13.3871 15.1651C13.4935 15.2723 13.5761 15.4004 13.6295 15.5412C13.6829 15.682 13.7059 15.8324 13.6971 15.9826C13.6872 16.6354 13.2542 17.0576 12.5889 17.0664Z" fill="#EC4E20"/>
<path d="M20.5273 15.9444C20.5332 16.6568 20.1336 17.0594 19.424 17.0624C18.7282 17.0624 18.2872 16.6343 18.2931 15.9561C18.2991 15.2779 18.7695 14.8283 19.4348 14.8391C20.1001 14.8498 20.5223 15.2876 20.5273 15.9444Z" fill="#EC4E20"/>
<path d="M16.0196 20.4712C15.3031 20.4712 14.8839 20.0803 14.875 19.3835C14.8661 18.719 15.3326 18.2303 15.9861 18.2381C16.6396 18.2459 17.1012 18.7004 17.1002 19.3776C17.0993 20.0549 16.6977 20.4663 16.0196 20.4712Z" fill="#EC4E20"/>
</g>
<defs>
<clipPath id="clip0">
<rect width="32" height="50" fill="white"/>
</clipPath>
</defs>
</svg>
