<svg width="86" height="86" viewBox="0 0 86 86" fill="none" xmlns="http://www.w3.org/2000/svg">
<g clip-path="url(#clip0)">
<path d="M46.426 23.7263C45.1884 23.7263 43.9926 24.1486 43.0001 24.9266C42.0077 24.1486 40.8121 23.7263 39.5744 23.7263C36.341 23.7263 33.7103 26.5898 33.7103 30.11C33.7103 33.6298 36.341 36.4935 39.5744 36.4935C40.8115 36.4935 42.0069 36.0713 43.0001 35.2933C43.993 36.0712 45.1887 36.4935 46.426 36.4935C49.6594 36.4935 52.29 33.6299 52.29 30.11C52.2898 26.5898 49.6594 23.7263 46.426 23.7263ZM40.4503 32.7745C40.2056 32.8964 39.913 32.9829 39.5742 32.9829C38.2765 32.9829 37.2206 31.6941 37.2206 30.1098C37.2206 28.5255 38.2765 27.2365 39.5744 27.2365C39.9135 27.2365 40.2061 27.3229 40.4505 27.445C39.7477 28.1175 39.3073 29.0624 39.3073 30.1096C39.3073 31.1573 39.7476 32.1019 40.4503 32.7745ZM42.9999 30.292C42.8995 30.292 42.8175 30.2102 42.8175 30.1098C42.8175 30.0092 42.8993 29.9274 42.9999 29.9274C43.1004 29.9274 43.1822 30.0092 43.1822 30.1098C43.1822 30.2102 43.1004 30.292 42.9999 30.292ZM46.426 32.9829C46.087 32.9829 45.7943 32.8964 45.5499 32.7745C46.2526 32.1019 46.6929 31.1573 46.6929 30.11C46.6929 29.0627 46.2526 28.118 45.5499 27.4453C45.7946 27.3234 46.0872 27.2369 46.426 27.2369C47.7237 27.2369 48.7796 28.5259 48.7796 30.1101C48.7796 31.6944 47.7237 32.9829 46.426 32.9829Z" fill="black"/>
<path d="M37.2386 18.0773C36.0614 18.0773 35.1034 19.0612 35.1034 20.2709C35.1034 21.4808 36.0612 22.4649 37.2386 22.4649C38.4161 22.4649 39.3739 21.4808 39.3739 20.2709C39.3739 19.0612 38.4161 18.0773 37.2386 18.0773Z" fill="black"/>
<path d="M48.7644 18.0773C47.5867 18.0773 46.629 19.0612 46.629 20.2709C46.629 21.4808 47.5869 22.4649 48.7644 22.4649C49.9418 22.4649 50.8996 21.4808 50.8996 20.2709C50.8994 19.0612 49.9417 18.0773 48.7644 18.0773Z" fill="black"/>
<path d="M43.0073 53.1121C43.0048 53.1121 43.0024 53.1121 42.9999 53.1121C42.0341 53.1121 41.249 53.8931 41.245 54.8599L41.2448 54.9011C41.2408 55.8704 42.0232 56.6596 42.9927 56.6636C42.9952 56.6636 42.9976 56.6636 43.0003 56.6636C43.9661 56.6636 44.7512 55.8825 44.7552 54.9157L44.7554 54.8746C44.7592 53.905 43.9768 53.1161 43.0073 53.1121Z" fill="black"/>
<path d="M66.7744 47.3275L56.074 36.6269C58.2496 34.6039 59.956 32.0832 61.0131 29.2491C64.3862 29.0903 67.0845 26.1495 67.0845 22.556C67.0845 18.9669 64.3926 16.0282 61.0247 15.8633C59.9117 12.8535 58.0651 10.1942 55.6906 8.10785C56.2218 6.41103 56.7406 3.41396 55.022 0.79298C54.6973 0.297977 54.1455 0 53.5537 0C50.6079 0 47.9896 0.730664 45.9933 1.53775C45.27 0.692703 44.1967 0.155371 42.9998 0.155371C41.8025 0.155371 40.7293 0.692703 40.0057 1.53775C38.0099 0.730832 35.3916 0 32.446 0C31.8545 0 31.3026 0.297809 30.9782 0.792645C29.2593 3.4138 29.7781 6.4117 30.3094 8.10802C27.9352 10.1945 26.0885 12.8533 24.9755 15.8631C21.6078 16.0277 18.9156 18.9667 18.9156 22.5559C18.9156 26.1494 21.6138 29.0903 24.9871 29.2489C26.044 32.0834 27.7506 34.6036 29.9263 36.6266L19.2258 47.3272C18.2581 48.2947 17.7253 49.5808 17.7253 50.9491C17.7253 52.3174 18.2581 53.6035 19.2256 54.5704C20.224 55.5689 21.5352 56.0681 22.8469 56.0681C24.1584 56.0681 25.47 55.5688 26.4685 54.5707L30.0739 50.9652V79.8503C30.0739 83.2413 32.8326 86.0002 36.2239 86.0002C39.6152 86.0002 42.3743 83.2414 42.3743 79.8503V66.6428C42.3743 66.2979 42.6549 66.0174 42.9999 66.0174C43.3448 66.0174 43.6253 66.2981 43.6253 66.6428V79.8502C43.6253 83.2411 46.384 86 49.7751 86C53.1667 86 55.9258 83.2413 55.9258 79.8502V50.9651L59.5311 54.5704C60.4986 55.5377 61.7845 56.0703 63.1527 56.0703C64.5206 56.0703 65.8069 55.5377 66.7741 54.5705C67.7416 53.603 68.2744 52.3171 68.2744 50.949C68.2744 49.5808 67.7416 48.2945 66.7744 47.3275ZM62.0078 19.7111C62.9351 20.2377 63.5738 21.3136 63.5738 22.5559C63.5738 23.7995 62.9338 24.8763 62.0049 25.4024C62.1433 24.4732 62.2169 23.523 62.2169 22.5559C62.2172 21.59 62.1452 20.6403 62.0078 19.7111ZM22.4258 22.5559C22.4258 21.3136 23.0646 20.2374 23.9919 19.7108C23.8547 20.6402 23.7826 21.5899 23.7826 22.5559C23.7826 23.5232 23.8562 24.4732 23.9946 25.4026C23.0657 24.8762 22.4258 23.7997 22.4258 22.5559ZM52.4848 3.54968C52.7448 4.3393 52.7302 5.17596 52.6166 5.90276C51.4373 5.22299 50.1762 4.66483 48.8489 4.2444C49.9397 3.90998 51.1669 3.64576 52.4848 3.54968ZM42.9999 3.66575C43.2371 3.66575 43.4299 3.85875 43.4299 4.09592C43.4299 4.33326 43.2371 4.52642 42.9999 4.52642C42.7624 4.52642 42.5694 4.33326 42.5694 4.09592C42.5693 3.85858 42.7626 3.66575 42.9999 3.66575ZM33.5149 3.54968C34.8328 3.64593 36.0601 3.91014 37.1508 4.2444C35.8236 4.665 34.5624 5.22316 33.3831 5.90293C33.2697 5.17629 33.2551 4.3393 33.5149 3.54968ZM23.986 52.0881C23.3578 52.7165 22.3354 52.7165 21.707 52.0881C21.4027 51.7839 21.235 51.3795 21.235 50.9491C21.235 50.5188 21.4027 50.1141 21.7072 49.8098L30.0734 41.4433V46.0004H30.0736L23.986 52.0881ZM52.4154 79.8502C52.4154 81.3056 51.2311 82.4896 49.7751 82.4896C48.3197 82.4896 47.1357 81.3056 47.1357 79.8502V66.6426C47.1357 64.3621 45.2804 62.5069 42.9999 62.5069C40.7193 62.5069 38.8639 64.3621 38.8639 66.6426V79.85C38.8639 81.3054 37.6797 82.4895 36.2239 82.4895C34.7685 82.4895 33.5843 81.3054 33.5843 79.85V39.3005C35.887 40.6006 38.4821 41.4396 41.2448 41.6917V49.1888C41.2448 50.158 42.0306 50.9439 43.0001 50.9439C43.9695 50.9439 44.7552 50.158 44.7552 49.1888V41.6917C47.5178 41.4394 50.1129 40.6006 52.4156 39.3007V79.8502H52.4154ZM42.9999 38.2629C34.339 38.2629 27.293 31.2168 27.293 22.5559C27.2932 14.8137 32.8731 8.30689 40.412 7.06426C41.1049 7.66912 42.0101 8.0368 43.0001 8.0368C43.9898 8.0368 44.895 7.66912 45.5878 7.06409C53.1271 8.30656 58.707 14.8132 58.707 22.5559C58.7069 31.2168 51.6607 38.2629 42.9999 38.2629ZM64.292 52.0883C63.6638 52.7167 62.6415 52.7167 62.0132 52.0883L55.9256 46.0009V41.4433L64.2922 49.8096C64.5965 50.114 64.7641 50.5186 64.7641 50.949C64.7641 51.3793 64.5965 51.7838 64.292 52.0883Z" fill="black"/>
</g>
<defs>
<clipPath id="clip0">
<rect width="86" height="86" fill="white"/>
</clipPath>
</defs>
</svg>
