<svg width="32" height="50" viewBox="0 0 32 50" fill="none" xmlns="http://www.w3.org/2000/svg">
<path d="M17.8226 13.7942C17.0541 13.7942 16.3116 14.0397 15.6952 14.492C15.079 14.0397 14.3365 13.7942 13.5679 13.7942C11.56 13.7942 9.92639 15.459 9.92639 17.5056C9.92639 19.552 11.56 21.2169 13.5679 21.2169C14.3361 21.2169 15.0785 20.9715 15.6952 20.5192C16.3118 20.9714 17.0543 21.2169 17.8226 21.2169C19.8305 21.2169 21.464 19.5521 21.464 17.5056C21.4639 15.459 19.8305 13.7942 17.8226 13.7942ZM14.1119 19.0547C13.9599 19.1256 13.7782 19.1759 13.5678 19.1759C12.7619 19.1759 12.1063 18.4266 12.1063 17.5055C12.1063 16.5844 12.7619 15.835 13.5679 15.835C13.7785 15.835 13.9602 15.8852 14.112 15.9562C13.6755 16.3472 13.4021 16.8965 13.4021 17.5054C13.4021 18.1145 13.6754 18.6637 14.1119 19.0547ZM15.6951 17.6115C15.6327 17.6115 15.5818 17.5639 15.5818 17.5055C15.5818 17.447 15.6326 17.3995 15.6951 17.3995C15.7575 17.3995 15.8083 17.447 15.8083 17.5055C15.8083 17.5639 15.7575 17.6115 15.6951 17.6115ZM17.8226 19.1759C17.6121 19.1759 17.4303 19.1256 17.2786 19.0547C17.715 18.6637 17.9884 18.1145 17.9884 17.5056C17.9884 16.8967 17.715 16.3475 17.2786 15.9564C17.4305 15.8855 17.6122 15.8352 17.8226 15.8352C18.6285 15.8352 19.2842 16.5846 19.2842 17.5057C19.2842 18.4268 18.6285 19.1759 17.8226 19.1759Z" fill="#EC4E20"/>
<path d="M12.1173 10.51C11.3862 10.51 10.7914 11.0821 10.7914 11.7854C10.7914 12.4888 11.3861 13.061 12.1173 13.061C12.8485 13.061 13.4432 12.4888 13.4432 11.7854C13.4432 11.0821 12.8485 10.51 12.1173 10.51Z" fill="#EC4E20"/>
<path d="M19.2746 10.51C18.5434 10.51 17.9486 11.0821 17.9486 11.7854C17.9486 12.4888 18.5435 13.061 19.2746 13.061C20.0058 13.061 20.6006 12.4888 20.6006 11.7854C20.6005 11.0821 20.0057 10.51 19.2746 10.51Z" fill="#EC4E20"/>
<path d="M15.6998 30.8792C15.6983 30.8792 15.6968 30.8792 15.6952 30.8792C15.0955 30.8792 14.608 31.3333 14.6055 31.8954L14.6054 31.9193C14.6029 32.4829 15.0887 32.9417 15.6908 32.944C15.6923 32.944 15.6938 32.944 15.6955 32.944C16.2952 32.944 16.7827 32.4899 16.7852 31.9278L16.7853 31.9039C16.7877 31.3402 16.3019 30.8815 15.6998 30.8792Z" fill="#EC4E20"/>
<path d="M30.4586 27.516L23.8138 21.2947C25.1648 20.1186 26.2245 18.653 26.8809 17.0053C28.9755 16.913 30.6511 15.2032 30.6511 13.114C30.6511 11.0272 28.9795 9.31875 26.8881 9.22285C26.1969 7.47295 25.0502 5.92686 23.5757 4.71387C23.9056 3.72734 24.2278 1.98486 23.1605 0.461035C22.9589 0.173242 22.6162 0 22.2488 0C20.4195 0 18.7936 0.424805 17.5539 0.894043C17.1047 0.402734 16.4382 0.090332 15.6949 0.090332C14.9515 0.090332 14.2851 0.402734 13.8357 0.894043C12.5963 0.424902 10.9704 0 9.14123 0C8.77397 0 8.43122 0.173145 8.22981 0.46084C7.16234 1.98477 7.48454 3.72773 7.81446 4.71396C6.3401 5.92705 5.19337 7.47285 4.50224 9.22275C2.41092 9.31846 0.739108 11.0271 0.739108 13.1139C0.739108 15.2031 2.41467 16.913 4.50944 17.0052C5.16573 18.6531 6.22547 20.1184 7.57654 21.2945L0.931761 27.5158C0.330857 28.0783 0 28.8261 0 29.6216C0 30.4171 0.330857 31.1648 0.931656 31.727C1.55165 32.3075 2.36586 32.5978 3.18038 32.5978C3.99479 32.5978 4.80932 32.3074 5.42931 31.7271L7.66822 29.631V46.4246C7.66822 48.3961 9.38134 50.0001 11.4873 50.0001C13.5932 50.0001 15.3065 48.3962 15.3065 46.4246V38.7458C15.3065 38.5453 15.4808 38.3822 15.6951 38.3822C15.9092 38.3822 16.0834 38.5454 16.0834 38.7458V46.4245C16.0834 48.396 17.7965 50 19.9023 50C22.0085 50 23.7218 48.3961 23.7218 46.4245V29.6309L25.9606 31.727C26.5614 32.2894 27.3599 32.599 28.2095 32.599C29.059 32.599 29.8578 32.2894 30.4583 31.7271C31.0591 31.1646 31.39 30.4169 31.39 29.6215C31.39 28.8261 31.0591 28.0782 30.4586 27.516ZM27.4986 11.46C28.0744 11.7661 28.471 12.3916 28.471 13.1139C28.471 13.8369 28.0736 14.463 27.4968 14.7688C27.5827 14.2286 27.6284 13.6762 27.6284 13.1139C27.6286 12.5523 27.5839 12.0002 27.4986 11.46ZM2.91888 13.1139C2.91888 12.3916 3.31556 11.7659 3.89143 11.4598C3.80621 12.0001 3.76146 12.5522 3.76146 13.1139C3.76146 13.6763 3.80715 14.2286 3.8931 14.7689C3.31629 14.4629 2.91888 13.837 2.91888 13.1139ZM21.585 2.06377C21.7464 2.52285 21.7374 3.00928 21.6669 3.43184C20.9345 3.03662 20.1514 2.71211 19.3272 2.46768C20.0045 2.27324 20.7666 2.11963 21.585 2.06377ZM15.6951 2.13125C15.8423 2.13125 15.9621 2.24346 15.9621 2.38135C15.9621 2.51934 15.8423 2.63164 15.6951 2.63164C15.5476 2.63164 15.4277 2.51934 15.4277 2.38135C15.4276 2.24336 15.5477 2.13125 15.6951 2.13125ZM9.80503 2.06377C10.6234 2.11973 11.3856 2.27334 12.0628 2.46768C11.2387 2.71221 10.4555 3.03672 9.72315 3.43193C9.65274 3.00947 9.64367 2.52285 9.80503 2.06377ZM3.88778 30.2838C3.49767 30.6491 2.86277 30.6491 2.47256 30.2838C2.28356 30.1069 2.17946 29.8718 2.17946 29.6216C2.17946 29.3714 2.28356 29.1361 2.47266 28.9592L7.66791 24.0949V26.7444H7.66802L3.88778 30.2838ZM21.5419 46.4245C21.5419 47.2707 20.8064 47.9591 19.9023 47.9591C18.9985 47.9591 18.2633 47.2707 18.2633 46.4245V38.7457C18.2633 37.4198 17.1112 36.3412 15.6951 36.3412C14.2788 36.3412 13.1266 37.4198 13.1266 38.7457V46.4244C13.1266 47.2706 12.3913 47.959 11.4873 47.959C10.5835 47.959 9.84811 47.2706 9.84811 46.4244V22.8491C11.278 23.605 12.8895 24.0928 14.6052 24.2394V28.5981C14.6052 29.1616 15.0931 29.6186 15.6952 29.6186C16.2971 29.6186 16.785 29.1616 16.785 28.5981V24.2394C18.5006 24.0927 20.1121 23.605 21.542 22.8492V46.4245H21.5419ZM15.6951 22.2459C10.3167 22.2459 5.94134 18.1493 5.94134 13.1139C5.94145 8.6126 9.40648 4.82959 14.088 4.10713C14.5183 4.45879 15.0804 4.67256 15.6952 4.67256C16.3097 4.67256 16.8718 4.45879 17.3021 4.10703C21.9838 4.82939 25.4489 8.6123 25.4489 13.1139C25.4488 18.1493 21.0733 22.2459 15.6951 22.2459ZM28.917 30.2839C28.5269 30.6492 27.8921 30.6492 27.5019 30.2839L23.7217 26.7447V24.0949L28.9171 28.9591C29.1061 29.136 29.2102 29.3713 29.2102 29.6215C29.2102 29.8717 29.1061 30.1068 28.917 30.2839Z" fill="#EC4E20"/>
</svg>
